<svg id="Layer_1" data-name="Layer 1" xmlns="http://www.w3.org/2000/svg" viewBox="0 0 463 335"><defs><style>.cls-1{fill:#0048f8;}</style></defs><title>char4</title><path class="cls-1" d="M455.5,384c-48,0-76.61-12.49-104.24-24.57C324.91,347.91,297.67,336,255.5,336c-36.42,0-71.33,14.28-102.14,26.88C126.8,373.74,101.72,384,79.5,384H55.15c14.22-6.34,30.44-14.26,48.18-22.93C170.87,328.07,254.92,287,319.5,287c79,0,131,38.12,131.51,38.51a7.5,7.5,0,0,0,9-12c-1.88-1.41-39.72-29.28-101-38.54v-12.7c13.76-2.73,24-12.79,24-24.76,0-5.86-2.85-20.23-7.46-33.23-6.74-19-14.6-28.27-24-28.27-6.59,0-12.42,4.52-17.63,13.72a212.61,212.61,0,0,0-8.67-33.35C316.62,131.9,306.91,120,295.5,120s-21.12,11.9-29.7,36.37c-6,17.25-9.8,36.21-9.8,43.88,0,15.45,13.8,28.35,32,31.17v36.22c-43.45-22.45-87.09-31.94-129.88-28.2a199.36,199.36,0,0,0-77.94,23.27C58,254.21,34,248,7.5,248a7.5,7.5,0,1,0,0,15c43.4,0,81,18.67,114.15,35.14,14.59,7.25,27.94,13.88,40.54,18.36-22.7,10.2-44.82,21-65.44,31.08C58.43,366.31,22.23,384,7.5,384a7.5,7.5,0,1,0,0,15h72c25.17,0,51.58-10.8,79.53-22.23C190,364.1,222,351,255.5,351c39,0,63.67,10.77,89.75,22.17,29,12.7,59.08,25.83,110.25,25.83a7.5,7.5,0,0,0,0-15h0Zm-136-112q-8.09,0-16.5.77V231.43a43.68,43.68,0,0,0,18.95-7.61A75.16,75.16,0,0,0,320,237.5c0,12,10.24,22,24,24.76v10.87C336.15,272.41,328,272,319.5,272Zm21.41-60.71c4.68-14,9-19.07,10.59-20.14,1.61,1.07,5.91,6.18,10.59,20.14C365.9,222.62,368,234,368,237.5c0,3.9-3.75,7.46-9,9.26V239.5a7.5,7.5,0,0,0-15,0v7.26c-5.25-1.8-9-5.36-9-9.26C335,234,337.1,222.62,340.91,211.29Zm-69.91-11c0-5.59,3.4-23.1,9-38.92C287.62,139.47,294.17,135,295.5,135s7.88,4.47,15.55,26.34c5.55,15.81,9,33.33,9,38.92,0,7.3-7.26,13.69-17,15.91V199.5a7.5,7.5,0,0,0-15,0v16.67C278.26,213.94,271,207.56,271,200.26ZM128.32,284.71c-9.59-4.76-19.53-9.7-29.9-14.35a186,186,0,0,1,61-16c37.5-3.28,75.86,4.42,114.27,22.89-28.88,6.1-59.33,16.94-89.3,29.55-16.07-2.26-34.65-11.48-56.08-22.12h0Z" transform="translate(0 -64)"/><path class="cls-1" d="M71.5,135H88.72a39.27,39.27,0,0,0,6.06,14.61L82.6,161.79A7.5,7.5,0,1,0,93.21,172.4l12.18-12.18A39.3,39.3,0,0,0,120,166.28V183.5a7.5,7.5,0,0,0,15,0V166.28a39.29,39.29,0,0,0,14.61-6.06l12.18,12.18a7.5,7.5,0,0,0,10.61-10.61l-12.18-12.18A39.29,39.29,0,0,0,166.28,135H183.5a7.5,7.5,0,0,0,0-15H166.28a39.27,39.27,0,0,0-6.06-14.61L172.4,93.21A7.5,7.5,0,0,0,161.79,82.6L149.61,94.78A39.3,39.3,0,0,0,135,88.72V71.5a7.5,7.5,0,0,0-15,0V88.72a39.29,39.29,0,0,0-14.61,6.06L93.21,82.6A7.5,7.5,0,0,0,82.6,93.21l12.18,12.18A39.29,39.29,0,0,0,88.72,120H71.5A7.5,7.5,0,0,0,71.5,135Zm56-32A24.5,24.5,0,1,1,103,127.5,24.53,24.53,0,0,1,127.5,103Z" transform="translate(0 -64)"/></svg>