<svg id="Layer_1" data-name="Layer 1" xmlns="http://www.w3.org/2000/svg" viewBox="0 0 463 367"><defs><style>.cls-1{fill:#0048f8;}</style></defs><title>char1</title><path class="cls-1" d="M455.5,400H431V343.5a7.5,7.5,0,0,0-7.5-7.5H359V311.5a7.5,7.5,0,0,0-7.5-7.5H318.77L311.24,63a15.43,15.43,0,0,0-15.49-15H263.25a15.43,15.43,0,0,0-15.49,15l-7.53,241H205.52l-6.28-201a15.43,15.43,0,0,0-15.49-15H151.25a15.43,15.43,0,0,0-15.49,15l-6.28,201h-34a7.5,7.5,0,0,0-7.5,7.5V336H39.5a7.5,7.5,0,0,0-7.5,7.5V400H7.5a7.5,7.5,0,1,0,0,15h448a7.5,7.5,0,1,0,0-15h0ZM416,351v49H359V351h57ZM300.26,192H258.74l0.53-17h40.46l0.53,17h0Zm-1-32H259.74l0.78-25h38l0.78,25h0Zm-41,47h42.46l0.78,25h-44l0.78-25h0ZM298,120H261l0.53-17h36L298,120h0ZM257,247h45l0.53,17h-46L257,247h0Zm6.23-184h32.49a0.5,0.5,0,0,1,.5.48L297,88H262l0.77-24.52A0.5,0.5,0,0,1,263.25,63ZM256,279h47l0.78,25H255.24Zm-68.76-79H147.74l0.78-25h38l0.78,25h0Zm-40,15h40.46l0.53,17H146.74l0.53-17h0ZM186,160H149l0.53-17h36L186,160h0Zm-39.74,87h42.46l0.78,25h-44l0.78-25h0Zm5-144h32.49a0.5,0.5,0,0,1,.5.48L185,128H150l0.77-24.52a0.5,0.5,0,0,1,.5-0.48h0ZM145,287h45l0.53,17h-46L145,287h0Zm-42,32H344v81H327V343.5a7.5,7.5,0,0,0-15,0V400H295V343.5a7.5,7.5,0,0,0-15,0V400H263V343.5a7.5,7.5,0,0,0-15,0V400H231V343.5a7.5,7.5,0,0,0-7.5-7.5H103V319h0ZM47,351H216v49H47V351Z" transform="translate(0 -48)"/><path class="cls-1" d="M79.5,360h-16a7.5,7.5,0,0,0,0,15h16A7.5,7.5,0,0,0,79.5,360Z" transform="translate(0 -48)"/><path class="cls-1" d="M119.5,360h-16a7.5,7.5,0,0,0,0,15h16A7.5,7.5,0,0,0,119.5,360Z" transform="translate(0 -48)"/><path class="cls-1" d="M159.5,360h-16a7.5,7.5,0,0,0,0,15h16A7.5,7.5,0,0,0,159.5,360Z" transform="translate(0 -48)"/><path class="cls-1" d="M199.5,360h-16a7.5,7.5,0,0,0,0,15h16A7.5,7.5,0,0,0,199.5,360Z" transform="translate(0 -48)"/><path class="cls-1" d="M375.5,375h24a7.5,7.5,0,0,0,0-15h-24A7.5,7.5,0,0,0,375.5,375Z" transform="translate(0 -48)"/></svg>