<svg id="Layer_1" data-name="Layer 1" xmlns="http://www.w3.org/2000/svg" viewBox="0 0 463 327"><defs><style>.cls-1{fill:#0048f8;}</style></defs><title>char2</title><path class="cls-1" d="M455.5,220H447V202.74q4.21,0.26,8.5.26a7.5,7.5,0,0,0,0-15C397.88,188,351,148.3,351,99.5v-24a7.5,7.5,0,0,0-15,0v24c0,48.8-46.88,88.5-104.5,88.5S127,148.3,127,99.5v-24a7.5,7.5,0,0,0-15,0v24C112,148.3,65.12,188,7.5,188a7.5,7.5,0,0,0,0,15q4.29,0,8.5-.26V220H7.5a7.5,7.5,0,0,0,0,15h448A7.5,7.5,0,0,0,455.5,220ZM432,220H415V196.88A133,133,0,0,0,432,201v19Zm-32,0H383V181.72a123.63,123.63,0,0,0,17,9.42V220h0Zm-32-50.09V220H351V149.65a106.15,106.15,0,0,0,17,20.26h0Zm-32-20.26V220H319V169.91A106.15,106.15,0,0,0,336,149.65Zm-49,41.48a123.52,123.52,0,0,0,17-9.42V220H287V191.14h0ZM272,220H255V201a133,133,0,0,0,17-4.11V220h0Zm-32-17.26V220H223V202.74q4.21,0.26,8.5.26T240,202.74Zm-49-5.86A133,133,0,0,0,208,201v19H191V196.88h0ZM176,220H159V181.72a123.63,123.63,0,0,0,17,9.42V220h0Zm-32-50.09V220H127V149.65a106.15,106.15,0,0,0,17,20.26h0Zm-32-20.26V220H95V169.91A106.15,106.15,0,0,0,112,149.65ZM80,220H63V191.14a123.52,123.52,0,0,0,17-9.42V220h0ZM31,201a133,133,0,0,0,17-4.11V220H31V201Z" transform="translate(0 -68)"/><path class="cls-1" d="M455.5,267a7.5,7.5,0,0,0,0-15H7.5a7.5,7.5,0,0,0,0,15H112v17h-0.5A15.52,15.52,0,0,0,96,299.5V316H7.5a7.5,7.5,0,0,0,0,15h448a7.5,7.5,0,0,0,0-15H367V299.5A15.52,15.52,0,0,0,351.5,284H351V267H455.5ZM111,299.5a0.5,0.5,0,0,1,.5-0.5h16a0.5,0.5,0,0,1,.5.5V316H111V299.5Zm241,0V316H335V299.5a0.5,0.5,0,0,1,.5-0.5h16A0.5,0.5,0,0,1,352,299.5ZM336,284h-0.5A15.52,15.52,0,0,0,320,299.5V316H143V299.5A15.52,15.52,0,0,0,127.5,284H127V267H336v17Z" transform="translate(0 -68)"/><path class="cls-1" d="M311.5,348h-144a7.5,7.5,0,0,0,0,15h144A7.5,7.5,0,0,0,311.5,348Z" transform="translate(0 -68)"/><path class="cls-1" d="M135.5,348h-64a7.5,7.5,0,0,0,0,15h64A7.5,7.5,0,0,0,135.5,348Z" transform="translate(0 -68)"/><path class="cls-1" d="M359.5,348h-16a7.5,7.5,0,0,0,0,15h16A7.5,7.5,0,0,0,359.5,348Z" transform="translate(0 -68)"/><path class="cls-1" d="M295.5,380h-80a7.5,7.5,0,0,0,0,15h80A7.5,7.5,0,0,0,295.5,380Z" transform="translate(0 -68)"/><path class="cls-1" d="M183.5,380h-16a7.5,7.5,0,0,0,0,15h16A7.5,7.5,0,1,0,183.5,380Z" transform="translate(0 -68)"/></svg>