<svg id="Layer_1" data-name="Layer 1" xmlns="http://www.w3.org/2000/svg" viewBox="0 0 463 295"><defs><style>.cls-1{fill:#0048f8;}</style></defs><title>char3</title><path class="cls-1" d="M455.5,364h-1.41L430.91,218.32a7.5,7.5,0,0,0-5-5.94L381.21,197.5l-14.42-59.76a7.5,7.5,0,0,0-3.13-4.48l-24-16a7.5,7.5,0,0,0-8.66.24l-24.77,18.58-11.7-31.21a7.5,7.5,0,0,0-2.86-3.61l-24-16a7.5,7.5,0,0,0-6.53-.87l-72,24a7.5,7.5,0,0,0-4.25,3.59L153.4,171l-28-36.09a7.5,7.5,0,0,0-10.09-1.65l-48,32a7.5,7.5,0,0,0-3.06,4.22L9.78,364H7.5a7.5,7.5,0,0,0,0,15h256a7.5,7.5,0,0,0,3-.65L334.77,348l44.57,29.71A7.5,7.5,0,0,0,383.5,379h72a7.5,7.5,0,1,0,0-15h0ZM51.42,364l26.85-15.19L93.7,364H51.42Zm210.49,0H158l14-10.5a7.5,7.5,0,0,0,2.21-2.65l22.61-45.22L240.1,291.2l43,7.16,29,43.32L261.91,364h0Zm77.75-30.74a7.5,7.5,0,0,0-7.21-.61L326,335.5l-31-46.28V251.5a7.5,7.5,0,0,0-.39-2.37l-16-48a7.5,7.5,0,1,0-14.23,4.74L280,252.72v29.93l-39.27-6.54a7.48,7.48,0,0,0-3.6.28L201.7,288.2l13.13-59.07a7.5,7.5,0,0,0-14.64-3.25L184.38,297l-22.79,45.59L133,364H115.09L84.76,334.15a7.5,7.5,0,0,0-9-1.18L26.19,361,78,176.2l39.88-26.59,27.82,35.88L120.88,232a7.51,7.51,0,0,0-.7,1.9l-5.33,24a7.5,7.5,0,1,0,14.64,3.25l5.11-23,62.11-116.46,65.68-21.89,18.94,12.62,23.15,61.74a7.5,7.5,0,0,0,14-5.27l-6.81-18.15,24-18,17.14,11.43,26.35,109.15a7.5,7.5,0,1,0,14.58-3.52l-8.46-35.05,31.44,10.48L438.9,364H421.45L417,345.73a7.5,7.5,0,1,0-14.57,3.55L406,364H385.77l-46.11-30.74h0Z" transform="translate(0 -84)"/><path class="cls-1" d="M116.68,284.18a7.5,7.5,0,0,0-8.95,5.69l-3.56,16a7.5,7.5,0,1,0,14.64,3.25l3.56-16A7.5,7.5,0,0,0,116.68,284.18Z" transform="translate(0 -84)"/><path class="cls-1" d="M409.27,313.75l-3.86-16a7.5,7.5,0,0,0-14.58,3.52l3.86,16A7.5,7.5,0,1,0,409.27,313.75Z" transform="translate(0 -84)"/><path class="cls-1" d="M262.61,153.13a7.5,7.5,0,1,0-14.23,4.74l5.34,16A7.5,7.5,0,0,0,268,169.14l-5.34-16h0Z" transform="translate(0 -84)"/></svg>