<?xml version="1.0" encoding="utf-8"?>
<!-- Generator: Adobe Illustrator 19.2.0, SVG Export Plug-In . SVG Version: 6.00 Build 0)  -->
<svg version="1.1" id="Capa_1" xmlns="http://www.w3.org/2000/svg" xmlns:xlink="http://www.w3.org/1999/xlink" x="0px" y="0px"
	 viewBox="0 0 483 483" style="enable-background:new 0 0 483 483;" xml:space="preserve">
<style type="text/css">
	.st0{fill:#565656;}
</style>
<g>
	<g>
		<path class="st0" d="M155.5,204.8c4.4,28.6,26.5,65,62.8,77.8c14.9,5.2,31.2,5.3,46.1-0.1c35.7-12.9,58.5-49.2,63-77.7
			c4.8-0.4,11.1-7.1,17.9-31.2c9.3-32.9-0.6-37.8-9-37c1.6-4.5,2.8-9.1,3.6-13.5c14.2-85.3-27.8-88.2-27.8-88.2s-7-13.4-25.3-23.5
			c-12.3-7.3-29.4-12.9-51.9-11c-7.3,0.3-14.2,1.8-20.7,3.9l0,0c-8.3,2.8-15.9,6.9-22.8,11.7C183,21.3,175,27.9,168,35.4
			c-11.1,11.4-21,26.1-25.3,44.4c-3.6,13.7-2.8,28,0.2,43.4l0,0c0.8,4.5,2,9,3.6,13.5c-8.4-0.8-18.3,4.1-9,37
			C144.4,197.7,150.7,204.4,155.5,204.8z"/>
		<path class="st0" d="M406.4,316.7c-51.1-13-92.6-42.2-92.6-42.2L281.4,377l-6.1,19.3l-0.1-0.3l-5.3,16.4l-17.1-48.5
			c42-58.6-8.5-58-11.3-57.9c-2.8-0.1-53.3-0.7-11.3,57.9l-17.1,48.5l-5.3-16.4l-0.1,0.3l-6.1-19.3l-32.5-102.5
			c0,0-41.5,29.2-92.6,42.2c-38.1,9.7-39.9,53.7-38.4,75.4c0,0,2.2,29.5,4.4,42.5c0,0,74.4,48.3,199,48.4c124.6,0,199-48.4,199-48.4
			c2.2-13,4.4-42.5,4.4-42.5C446.3,370.4,444.5,326.4,406.4,316.7z"/>
	</g>
</g>
</svg>
