<svg id="Capa_1" data-name="Capa 1" xmlns="http://www.w3.org/2000/svg" viewBox="0 0 490 490"><title>email</title><path d="M374.62,429.89Q328.82,452.3,261,452.31q-63.38,0-115.52-21.52t-79.68-66.6Q38.29,319.1,38.29,256.71A235.31,235.31,0,0,1,65.84,145q27.55-52.07,77.61-80T254.06,37.18q53,0,96.89,22.16t66,59.09A151.93,151.93,0,0,1,439,197.89q0,36.42-17.2,70.67t-46.69,54.63q-22.26,15.54-36,15.53a18,18,0,0,1-12.8-5,15.65,15.65,0,0,1-5.3-11.84q0-3.82,7.76-39.47l37.25-170.89H319.77L311,151q-14.74-23.68-35.18-35.27a85.84,85.84,0,0,0-42.95-11.59q-29.49,0-60.8,20.38t-52.39,61q-21.08,40.62-21.08,81.11,0,32.85,13.59,60.36t35.31,40.75Q169.2,381,192.23,381q21,0,41.78-11.59a142.13,142.13,0,0,0,37.64-30.69q1.55,15.54,4.92,21.9a34.64,34.64,0,0,0,16.17,15.28q11,5.35,28.86,5.35,55.88,0,103-51.45,52.78-57.3,52.77-131.16,0-51.69-25.09-95.75-29.5-51.2-80.59-77T256.39,0q-82.8,0-140.87,36.67T25.87,142.36A280.25,280.25,0,0,0,0,260.79q0,55.77,21.73,103.9,17.33,37.95,51.48,67.11t82.66,43.68Q204.38,490,261.82,490q62.34,0,106.58-16.18t76.32-43.93q32.08-27.76,45.28-54.5H443.18Q420.41,407.48,374.62,429.89ZM286.91,266.77Q277.6,292.63,263,309.43t-30.66,25.34q-16,8.54-30.53,8.53-21.73,0-38.55-19.35T146.43,269.7q0-21.91,8.28-48.14t22-44.57q13.71-18.34,28.33-26.61a62.28,62.28,0,0,1,31.17-8.28q25.1,0,42.56,19.1t17.47,53.74A152,152,0,0,1,286.91,266.77Z"/></svg>