<svg id="Capa_1" data-name="Capa 1" xmlns="http://www.w3.org/2000/svg" viewBox="0 0 512 467.77"><defs><style>.cls-1{fill:#fff;}</style></defs><title>f1</title><path class="cls-1" d="M358.5,22.12A152.39,152.39,0,0,0,256,61.36,152.39,152.39,0,0,0,153.5,22.12C68.86,22.12,0,91,0,175.62,0,229.12,29,292.9,81.78,355.18c48.51,57.3,110.74,106.11,170.74,133.93a8.29,8.29,0,0,0,7,0c60-27.82,122.23-76.63,170.74-133.93C483,292.89,512,229.12,512,175.62,512,91,443.14,22.12,358.5,22.12ZM153.5,38.7a136,136,0,0,1,96.64,39.95,8.29,8.29,0,0,0,11.71,0A136,136,0,0,1,358.5,38.7c75.5,0,136.91,61.42,136.91,136.91,0,18.37-3.8,38.16-11.13,58.82H379.85a8.29,8.29,0,0,0-8.1,6.49l-9.83,44.23-27.08-115.1a8.29,8.29,0,0,0-8-6.39h-0.06a8.29,8.29,0,0,0-8,6.28L302.6,234.44H202.92a8.29,8.29,0,0,0-8.1,6.49L185,285.16l-27.08-115.1a8.29,8.29,0,0,0-8-6.39h-0.06a8.29,8.29,0,0,0-8,6.28l-16.12,64.49h-98C20.39,213.78,16.59,194,16.59,175.62,16.59,100.12,78,38.7,153.5,38.7ZM417.57,344.47c-45.37,53.6-105.51,101.18-161.57,128-56.05-26.78-116.19-74.36-161.57-128C67.76,313,47.45,281.25,34.28,251h97.87a8.29,8.29,0,0,0,8-6.28l9.4-37.61,27.56,117.12a8.29,8.29,0,0,0,8.07,6.39h0.05a8.29,8.29,0,0,0,8-6.49L209.57,251h99.51a8.29,8.29,0,0,0,8-6.28l9.4-37.61,27.56,117.12a8.29,8.29,0,0,0,8.07,6.39h0.05a8.29,8.29,0,0,0,8-6.49L386.5,251h91.22C464.55,281.25,444.24,313,417.57,344.47Z" transform="translate(0 -22.12)"/></svg>