<svg id="Layer_1" data-name="Layer 1" xmlns="http://www.w3.org/2000/svg" viewBox="0 0 500.47 512"><defs><style>.cls-1{fill:#fff;}</style></defs><title>f10</title><path class="cls-1" d="M103.81,403.34a8.17,8.17,0,0,0,8.17,8.17H400a8.17,8.17,0,0,0,0-16.34H112A8.17,8.17,0,0,0,103.81,403.34Z" transform="translate(-5.76 0)"/><path class="cls-1" d="M112,338.48h19.3a32.24,32.24,0,0,1,31.13,24H112a8.17,8.17,0,0,0,0,16.34h59.65a8.17,8.17,0,0,0,8.17-8.17,48.57,48.57,0,0,0-48.52-48.52H112A8.17,8.17,0,1,0,112,338.48Z" transform="translate(-5.76 0)"/><path class="cls-1" d="M340.37,378.83H400a8.17,8.17,0,0,0,0-16.34H349.59a32.24,32.24,0,0,1,31.13-24H400a8.17,8.17,0,0,0,0-16.34h-19.3a48.57,48.57,0,0,0-48.52,48.52A8.17,8.17,0,0,0,340.37,378.83Z" transform="translate(-5.76 0)"/><path class="cls-1" d="M465.38,0H46.62a8.17,8.17,0,0,0-8.17,8.17V370.66a8.17,8.17,0,0,0,8.17,8.17H71.13v68.09a8.17,8.17,0,0,0,8.17,8.17H82v48.75A8.17,8.17,0,0,0,90.19,512h69.92a8.17,8.17,0,0,0,8.17-8.17V479.59a8.17,8.17,0,0,0-16.34,0v16.07H98.36V455.08H411.82v40.58H358.24V479.59a8.17,8.17,0,0,0-16.34,0v24.24a8.17,8.17,0,0,0,8.17,8.17H420a8.17,8.17,0,0,0,8.17-8.17V455.08h4.55a8.17,8.17,0,0,0,8.17-8.17V378.83h24.51a8.17,8.17,0,0,0,8.17-8.17V8.17A8.17,8.17,0,0,0,465.38,0ZM112,253.41a8.17,8.17,0,0,0,0,16.34H400a8.17,8.17,0,0,0,0-16.34H264.17V128H394.58a30,30,0,0,1,30,30V438.74H87.47V158a30,30,0,0,1,30-30H247.83V253.41H112ZM457.21,362.49H440.87V158a46.35,46.35,0,0,0-46.3-46.3H117.42A46.35,46.35,0,0,0,71.13,158V362.49H54.79V16.34H457.21V362.49h0Z" transform="translate(-5.76 0)"/><path class="cls-1" d="M498.06,203.58a8.17,8.17,0,0,0-8.17,8.17v49.83a8.17,8.17,0,0,0,16.34,0V211.75A8.17,8.17,0,0,0,498.06,203.58Z" transform="translate(-5.76 0)"/><path class="cls-1" d="M13.94,203.58a8.17,8.17,0,0,0-8.17,8.17v49.83a8.17,8.17,0,0,0,16.34,0V211.75A8.17,8.17,0,0,0,13.94,203.58Z" transform="translate(-5.76 0)"/></svg>