<svg id="Capa_1" data-name="Capa 1" xmlns="http://www.w3.org/2000/svg" viewBox="0 0 512 512"><defs><style>.cls-1{fill:#fff;}</style></defs><title>f2</title><path class="cls-1" d="M256,194.63A61.37,61.37,0,1,0,317.37,256,61.44,61.44,0,0,0,256,194.63Zm0,106.16A44.79,44.79,0,1,1,300.79,256,44.84,44.84,0,0,1,256,300.79Z"/><path class="cls-1" d="M256,230a8.29,8.29,0,0,0,0,16.59,9.41,9.41,0,0,1,9.4,9.4A8.29,8.29,0,1,0,282,256,26,26,0,0,0,256,230Z"/><path class="cls-1" d="M512,256c0-27.4-27.72-52.39-78.06-70.37q-2.17-.77-4.38-1.53,1-2.09,2-4.18c22.88-48.3,24.81-85.58,5.44-105s-56.65-17.44-105,5.44q-2.08,1-4.18,2-0.75-2.21-1.53-4.38C308.39,27.72,283.4,0,256,0s-52.39,27.72-70.37,78.06q-0.77,2.17-1.53,4.38-2.09-1-4.18-2C131.62,57.54,94.36,55.61,75,75s-17.44,56.65,5.44,105q1,2.08,2,4.18-2.21.75-4.38,1.53C27.72,203.61,0,228.6,0,256s27.72,52.39,78.06,70.37q2.17,0.77,4.38,1.53-1,2.09-2,4.18C57.54,380.37,55.61,417.64,75,437c8.84,8.84,21.41,13.25,37.06,13.25,18.64,0,41.63-6.25,67.89-18.69q2.08-1,4.18-2,0.75,2.21,1.53,4.38c18,50.34,43,78.06,70.36,78.06s52.39-27.72,70.37-78.06q0.77-2.17,1.53-4.38,2.09,1,4.18,2C358.33,444,381.32,450.27,400,450.27c15.64,0,28.22-4.41,37.06-13.25,19.37-19.37,17.44-56.65-5.44-105q-1-2.08-2-4.18,2.21-.75,4.38-1.53C484.28,308.39,512,283.4,512,256ZM339.17,95.41c24.09-11.41,44.88-17.2,60.73-17.2,11.05,0,19.7,2.82,25.39,8.5,13.84,13.84,10.67,45.23-8.7,86.12-1,2.07-2,4.16-3.06,6.26a480.72,480.72,0,0,0-66.79-13.82,480.68,480.68,0,0,0-13.82-66.79C335,97.42,337.1,96.39,339.17,95.41Zm-3,160.59q0,16.65-.78,32.88-10.92,12-22.7,23.81t-23.81,22.7q-16.21.77-32.88,0.78t-32.89-.78q-12-10.92-23.81-22.7t-22.7-23.81q-0.77-16.21-.78-32.88t0.78-32.89q10.92-12,22.7-23.81t23.81-22.7q16.21-.77,32.89-0.78t32.89,0.78q12,10.92,23.81,22.7t22.7,23.81Q336.16,239.33,336.17,256Zm-11.75-68.42q-4.67-4.67-9.38-9.21,8.54,0.75,16.87,1.72,1,8.33,1.72,16.87Q329.08,192.25,324.42,187.58Zm-28.8-27.23q-13-11.58-26.08-22.11a462.93,462.93,0,0,1,48.4-31.79,463.36,463.36,0,0,1,11.75,56.7C318.57,161.94,307.19,161,295.62,160.35Zm-26.47-1q-6.55-.12-13.15-0.12t-13.15.12q6.57-5.51,13.15-10.71Q262.58,153.86,269.15,159.36Zm-52.76,1c-11.58.65-23,1.59-34.07,2.8a463.11,463.11,0,0,1,11.75-56.7,463.4,463.4,0,0,1,48.4,31.79Q229.38,148.74,216.38,160.35Zm-19.42,18q-4.71,4.54-9.38,9.21T178.37,197q0.75-8.54,1.72-16.87Q188.42,179.12,197,178.37Zm-36.61,38q-11.58,13-22.11,26.08a462.93,462.93,0,0,1-31.79-48.4,463.36,463.36,0,0,1,56.7-11.75C161.94,193.43,161,204.81,160.35,216.38Zm-1,26.47q-0.12,6.55-.12,13.15t0.12,13.15q-5.51-6.57-10.71-13.15Q153.86,249.42,159.36,242.85Zm1,52.76c0.65,11.58,1.59,23,2.8,34.07a463.11,463.11,0,0,1-56.7-11.75,463.28,463.28,0,0,1,31.79-48.4Q148.74,282.62,160.35,295.62Zm18,19.42q4.54,4.71,9.21,9.38t9.38,9.21q-8.54-.75-16.87-1.72Q179.12,323.58,178.37,315Zm38,36.61q13,11.58,26.08,22.11a462.93,462.93,0,0,1-48.4,31.79,463.36,463.36,0,0,1-11.75-56.7C193.43,350.06,204.81,351,216.38,351.65Zm26.47,1q6.55,0.12,13.15.12t13.15-.12q-6.57,5.51-13.15,10.71Q249.42,358.14,242.85,352.64Zm52.76-1c11.58-.65,23-1.59,34.07-2.8a463.11,463.11,0,0,1-11.75,56.7,463.4,463.4,0,0,1-48.4-31.79Q282.62,363.26,295.62,351.65Zm19.42-18q4.71-4.54,9.38-9.21t9.21-9.38q-0.75,8.54-1.72,16.87Q323.58,332.88,315,333.63Zm36.61-38q11.58-13,22.11-26.08a463,463,0,0,1,31.79,48.4,463.36,463.36,0,0,1-56.7,11.75C350.06,318.57,351,307.19,351.65,295.62Zm1-26.47q0.12-6.55.12-13.15t-0.12-13.15q5.51,6.57,10.71,13.15Q358.14,262.58,352.64,269.15Zm-1-52.76c-0.65-11.58-1.59-23-2.8-34.07a463.15,463.15,0,0,1,56.7,11.75,463.4,463.4,0,0,1-31.79,48.4Q363.26,229.38,351.65,216.38ZM201.26,83.63c15.22-42.61,35.17-67,54.74-67s39.53,24.44,54.74,67c0.77,2.16,1.52,4.36,2.26,6.59a480.75,480.75,0,0,0-57,37.45,480.84,480.84,0,0,0-57-37.45C199.73,88,200.48,85.79,201.26,83.63ZM95.41,172.83C76,131.94,72.87,100.55,86.71,86.71,92.4,81,101,78.21,112.1,78.21c15.85,0,36.65,5.79,60.73,17.2,2.07,1,4.16,2,6.26,3.06a480.87,480.87,0,0,0-13.82,66.79,480.88,480.88,0,0,0-66.79,13.82C97.42,177,96.39,174.9,95.41,172.83ZM83.63,310.74c-42.61-15.22-67-35.17-67-54.74s24.44-39.53,67-54.74c2.16-.77,4.36-1.52,6.59-2.26a480.75,480.75,0,0,0,37.45,57,480.84,480.84,0,0,0-37.45,57C88,312.27,85.79,311.52,83.63,310.74Zm89.2,105.85c-40.89,19.37-72.28,22.54-86.12,8.7S76,380.06,95.41,339.17c1-2.07,2-4.16,3.06-6.26a480.88,480.88,0,0,0,66.79,13.82,480.71,480.71,0,0,0,13.82,66.79C177,414.58,174.9,415.61,172.83,416.59Zm137.91,11.77c-15.22,42.61-35.17,67-54.74,67s-39.53-24.44-54.74-67c-0.77-2.16-1.52-4.36-2.26-6.59a480.75,480.75,0,0,0,57-37.45,480.84,480.84,0,0,0,57,37.45C312.27,424,311.52,426.21,310.74,428.37Zm105.85-89.2c19.37,40.89,22.54,72.28,8.7,86.12s-45.23,10.67-86.12-8.7c-2.07-1-4.16-2-6.26-3.06a480.88,480.88,0,0,0,13.82-66.79,480.71,480.71,0,0,0,66.79-13.82C414.58,335,415.61,337.1,416.59,339.17ZM384.32,256a480.93,480.93,0,0,0,37.45-57c2.23,0.74,4.43,1.49,6.59,2.26,42.61,15.22,67,35.17,67,54.74s-24.44,39.53-67,54.74c-2.16.77-4.36,1.52-6.59,2.26A481,481,0,0,0,384.32,256Z"/></svg>