<svg id="Capa_1" data-name="Capa 1" xmlns="http://www.w3.org/2000/svg" viewBox="0 0 476.61 512"><defs><style>.cls-1{fill:#fff;}</style></defs><title>f5</title><path class="cls-1" d="M441.12,360.08l-84.81-21.2a26,26,0,0,0-11.39-18.82l-7.34-4.89c25.57-27.48,41.72-67.61,41.72-112.25a181.26,181.26,0,0,0-1.61-24.15c1.15-9,10.46-84.23,10.46-152.78a8.3,8.3,0,0,0-5.74-7.89C380.12,17.36,325.62,0,256,0c-16.06,0-55.54,2.64-82.83,26.54h-3.09a52.48,52.48,0,0,0-52.4,56.18c2.56,35.76,8.53,79.2,15.27,111.23-0.14,3-.24,6-0.24,9,0,44.64,16.15,84.77,41.72,112.25l-7.34,4.89a26,26,0,0,0-11.39,18.82l-84.81,21.2A70.12,70.12,0,0,0,17.69,428.2V486a26,26,0,0,0,26,26H468.32a26,26,0,0,0,26-26V428.2A70.12,70.12,0,0,0,441.12,360.08Zm-62.75,49.19L351.3,416a8.29,8.29,0,0,0-5.41,11.76l16,32.06-14.18,35.56H289.93l-7.63-52.09a25.93,25.93,0,0,0,8.53-19.24v-5.25c4,3.27,8.18,7,12.42,11.15a8.29,8.29,0,0,0,7.16,2.28c4.19-.68,5.58-3.45,7.18-6.65l35.25-70.51,10.82,2.7Zm-214.1,86.14-14.19-35.56,16-32.06A8.29,8.29,0,0,0,160.7,416l-27.07-6.77,14.7-51.46,10.82-2.7,35.25,70.51c1.61,3.2,3,6,7.18,6.65a8.44,8.44,0,0,0,1.33.11,8.3,8.3,0,0,0,5.83-2.39c4.24-4.18,8.41-7.88,12.42-11.15v5.25a25.93,25.93,0,0,0,8.53,19.24l-7.65,52.09H164.27ZM256,377l-28.16-28.16a102.43,102.43,0,0,0,56.31,0Zm0,20.56A118.66,118.66,0,0,1,274.25,407v17.12a9.41,9.41,0,0,1-9.4,9.4H247.15a9.41,9.41,0,0,1-9.4-9.4V407A118.73,118.73,0,0,1,256,397.53ZM245.48,450c0.55,0,1.11.06,1.67,0.06h17.69c0.56,0,1.12,0,1.67-.06l6.65,45.4H238.82Zm93.44-104.14c-17.67,35.37-27.29,54.6-32.29,64.59a168.73,168.73,0,0,0-36.08-24.59l57.28-57.28,7.89,5.26A9.41,9.41,0,0,1,338.92,345.87ZM282,191.55a96.5,96.5,0,0,1,45.34,0v26.93a96.5,96.5,0,0,1-45.34,0V191.55Zm56.07-14.25a113.15,113.15,0,0,0-66.8,0,8.29,8.29,0,0,0-5.86,7.93v2.32a25.9,25.9,0,0,0-18.8,0v-2.32a8.29,8.29,0,0,0-5.85-7.93,113.15,113.15,0,0,0-66.8,0,8.29,8.29,0,0,0-5.86,7.93v0.55H150.17a150.53,150.53,0,0,1,20.75-63.1c89.36-.3,153.24,7.39,180.85,21.76a156.57,156.57,0,0,1,10,41.34H343.91v-0.55A8.29,8.29,0,0,0,338.06,177.3ZM184.67,191.55a96.5,96.5,0,0,1,45.34,0v26.93a96.5,96.5,0,0,1-45.34,0V191.55Zm-50.45-110a35.9,35.9,0,0,1,35.86-38.41h6.3a8.29,8.29,0,0,0,5.72-2.29c23-21.89,59.34-24.25,73.9-24.25a452.13,452.13,0,0,1,115.53,15.6c-0.3,36.73-3.13,74.79-5.77,102.75a8.27,8.27,0,0,0-3.24-3.51c-20.61-12-71.39-26.11-196.25-25.31a8.3,8.3,0,0,0-6.89,3.76,160.32,160.32,0,0,0-17.85,37.19C138.3,125.16,135.69,102.06,134.22,81.54ZM149.3,202.37h18.79V224.8a8.29,8.29,0,0,0,5.86,7.93,113.17,113.17,0,0,0,66.8,0,8.3,8.3,0,0,0,5.86-7.93v-13a9.4,9.4,0,1,1,18.8,0v13a8.29,8.29,0,0,0,5.86,7.93,113.17,113.17,0,0,0,66.8,0,8.3,8.3,0,0,0,5.86-7.93V202.37h18.79c0,0.18,0,.37,0,0.55,0,73.48-47.87,133.25-106.71,133.25S149.29,276.4,149.29,202.92C149.29,202.74,149.29,202.55,149.3,202.37Zm27,131.49,7.89-5.26,57.28,57.28a168.77,168.77,0,0,0-36.08,24.59c-5-10-14.61-29.22-32.29-64.59A9.41,9.41,0,0,1,176.28,333.86ZM34.28,486V428.2a53.56,53.56,0,0,1,40.62-52l54.85-13.71L115.33,413a8.29,8.29,0,0,0,6,10.33l25.36,6.34-13.07,26.14a8.29,8.29,0,0,0-.29,6.78l13.12,32.86H43.68A9.41,9.41,0,0,1,34.28,486Zm443.44,0a9.41,9.41,0,0,1-9.4,9.4H365.61l13.11-32.87a8.29,8.29,0,0,0-.29-6.78l-13.07-26.14,25.36-6.34a8.29,8.29,0,0,0,6-10.33l-14.43-50.5,54.85,13.71a53.56,53.56,0,0,1,40.62,52V486h0Z" transform="translate(-17.69)"/></svg>