<svg id="Capa_1" data-name="Capa 1" xmlns="http://www.w3.org/2000/svg" viewBox="0 0 370.45 512"><defs><style>.cls-1{fill:#fff;}</style></defs><title>f3</title><path class="cls-1" d="M406.39,35.39H342.55a26,26,0,0,0-24.62-17.69h-27a43.32,43.32,0,0,0-69.85,0h-27a26,26,0,0,0-24.62,17.69H105.61A34.87,34.87,0,0,0,70.77,70.22V477.17A34.87,34.87,0,0,0,105.61,512H406.39a34.87,34.87,0,0,0,34.83-34.83V70.22A34.87,34.87,0,0,0,406.39,35.39ZM194.07,96.21H317.93a25.93,25.93,0,0,0,19.51-8.85h51.82V460H122.75V87.36h51.82A25.93,25.93,0,0,0,194.07,96.21Zm0-61.93h31.45a8.29,8.29,0,0,0,7.17-4.12,26.8,26.8,0,0,1,46.62,0,8.3,8.3,0,0,0,7.17,4.12h31.45a9.41,9.41,0,0,1,9.4,9.4V70.22a9.41,9.41,0,0,1-9.4,9.4H194.07a9.41,9.41,0,0,1-9.4-9.4V43.68A9.41,9.41,0,0,1,194.07,34.28ZM424.64,477.17a18.27,18.27,0,0,1-18.25,18.25H105.61a18.27,18.27,0,0,1-18.25-18.25V70.22A18.27,18.27,0,0,1,105.61,52h62.48V70.22c0,0.19,0,.37,0,0.55H114.45a8.29,8.29,0,0,0-8.29,8.29V468.32a8.29,8.29,0,0,0,8.29,8.29H397.55a8.29,8.29,0,0,0,8.29-8.29V79.07a8.29,8.29,0,0,0-8.29-8.29H343.9c0-.18,0-0.37,0-0.55V52h62.48a18.27,18.27,0,0,1,18.25,18.25V477.17Z" transform="translate(-70.77)"/><path class="cls-1" d="M256,52a8.31,8.31,0,1,0-5.86-2.43A8.31,8.31,0,0,0,256,52Z" transform="translate(-70.77)"/><path class="cls-1" d="M202.92,175.83H353.31a8.29,8.29,0,1,0,0-16.59H202.92A8.29,8.29,0,1,0,202.92,175.83Z" transform="translate(-70.77)"/><path class="cls-1" d="M202.92,264.29H353.31a8.29,8.29,0,1,0,0-16.59H202.92A8.29,8.29,0,1,0,202.92,264.29Z" transform="translate(-70.77)"/><path class="cls-1" d="M202.92,352.76h26.54a8.29,8.29,0,0,0,0-16.59H202.92A8.29,8.29,0,1,0,202.92,352.76Z" transform="translate(-70.77)"/><path class="cls-1" d="M202.92,220.06H353.31a8.29,8.29,0,0,0,0-16.59H202.92A8.29,8.29,0,1,0,202.92,220.06Z" transform="translate(-70.77)"/><path class="cls-1" d="M202.92,308.53h35.39a8.29,8.29,0,1,0,0-16.59H202.92A8.29,8.29,0,0,0,202.92,308.53Z" transform="translate(-70.77)"/><path class="cls-1" d="M202.92,397h35.39a8.29,8.29,0,1,0,0-16.59H202.92A8.29,8.29,0,1,0,202.92,397Z" transform="translate(-70.77)"/><path class="cls-1" d="M158.69,175.83h8.85a8.29,8.29,0,1,0,0-16.59h-8.85A8.29,8.29,0,1,0,158.69,175.83Z" transform="translate(-70.77)"/><path class="cls-1" d="M158.69,264.29h8.85a8.29,8.29,0,1,0,0-16.59h-8.85A8.29,8.29,0,1,0,158.69,264.29Z" transform="translate(-70.77)"/><path class="cls-1" d="M158.69,352.76h8.85a8.29,8.29,0,1,0,0-16.59h-8.85A8.29,8.29,0,1,0,158.69,352.76Z" transform="translate(-70.77)"/><path class="cls-1" d="M158.69,220.06h8.85a8.29,8.29,0,1,0,0-16.59h-8.85A8.29,8.29,0,0,0,158.69,220.06Z" transform="translate(-70.77)"/><path class="cls-1" d="M158.69,308.53h8.85a8.29,8.29,0,1,0,0-16.59h-8.85A8.29,8.29,0,0,0,158.69,308.53Z" transform="translate(-70.77)"/><path class="cls-1" d="M158.69,397h8.85a8.29,8.29,0,0,0,0-16.59h-8.85A8.29,8.29,0,1,0,158.69,397Z" transform="translate(-70.77)"/><path class="cls-1" d="M309.08,291.94a52.53,52.53,0,1,0,31.26,94.71c0.08-.06.17-0.1,0.25-0.16s0.43-.34.63-0.52A52.5,52.5,0,0,0,309.08,291.94Zm-8.29,17.56v26.67H274.12A36.05,36.05,0,0,1,300.79,309.5Zm-26.67,43.26h30.82l18.49,24.65A35.91,35.91,0,0,1,274.12,352.76Zm62.57,14.69L317.37,341.7V309.5A35.91,35.91,0,0,1,336.68,367.45Z" transform="translate(-70.77)"/></svg>