<svg id="Capa_1" data-name="Capa 1" xmlns="http://www.w3.org/2000/svg" viewBox="0 0 370.45 512"><defs><style>.cls-1{fill:#fff;}</style></defs><title>Монтажная область 1</title><path class="cls-1" d="M335.62,35.39H271.78A26,26,0,0,0,247.16,17.7h-27a43.32,43.32,0,0,0-69.85,0h-27A26,26,0,0,0,98.69,35.39H34.84A34.87,34.87,0,0,0,0,70.22v407A34.87,34.87,0,0,0,34.84,512H335.62a34.87,34.87,0,0,0,34.83-34.83V70.22A34.87,34.87,0,0,0,335.62,35.39ZM123.3,96.21H247.16a25.93,25.93,0,0,0,19.51-8.85h51.82V460H52V87.36H103.8A25.93,25.93,0,0,0,123.3,96.21Zm0-61.93h31.45a8.29,8.29,0,0,0,7.17-4.12,26.8,26.8,0,0,1,46.62,0,8.3,8.3,0,0,0,7.17,4.12h31.45a9.41,9.41,0,0,1,9.4,9.4V70.22a9.41,9.41,0,0,1-9.4,9.4H123.3a9.41,9.41,0,0,1-9.4-9.4V43.68A9.41,9.41,0,0,1,123.3,34.28ZM353.87,477.17a18.27,18.27,0,0,1-18.25,18.25H34.84a18.27,18.27,0,0,1-18.25-18.25v-407A18.27,18.27,0,0,1,34.84,52H97.32V70.77H43.68a8.29,8.29,0,0,0-8.29,8.29h0V468.32a8.29,8.29,0,0,0,8.29,8.29h283.1a8.29,8.29,0,0,0,8.29-8.29h0V79.07a8.29,8.29,0,0,0-8.29-8.29H273.13V52h62.48a18.27,18.27,0,0,1,18.25,18.25V477.17Z"/><path class="cls-1" d="M185.23,52a8.31,8.31,0,1,0-5.86-2.43A8.31,8.31,0,0,0,185.23,52Z"/><path class="cls-1" d="M132.15,175.83H282.54a8.29,8.29,0,0,0,0-16.59H132.15a8.29,8.29,0,0,0,0,16.59Z"/><path class="cls-1" d="M132.15,264.29H282.54a8.29,8.29,0,0,0,0-16.59H132.15a8.29,8.29,0,0,0,0,16.59Z"/><path class="cls-1" d="M132.15,352.76h26.54a8.29,8.29,0,1,0,0-16.59H132.15a8.29,8.29,0,0,0,0,16.59Z"/><path class="cls-1" d="M132.15,220.06H282.54a8.29,8.29,0,0,0,0-16.59H132.15a8.29,8.29,0,0,0,0,16.59Z"/><path class="cls-1" d="M132.15,308.53h35.39a8.29,8.29,0,1,0,0-16.59H132.15a8.29,8.29,0,0,0,0,16.59Z"/><path class="cls-1" d="M132.15,397h35.39a8.29,8.29,0,1,0,0-16.59H132.15a8.29,8.29,0,0,0,0,16.59Z"/><path class="cls-1" d="M87.92,175.83h8.85a8.29,8.29,0,1,0,0-16.59H87.92a8.29,8.29,0,1,0,0,16.59Z"/><path class="cls-1" d="M87.92,264.29h8.85a8.29,8.29,0,1,0,0-16.59H87.92a8.29,8.29,0,1,0,0,16.59Z"/><path class="cls-1" d="M87.92,352.76h8.85a8.29,8.29,0,1,0,0-16.59H87.92a8.29,8.29,0,0,0,0,16.59Z"/><path class="cls-1" d="M87.92,220.06h8.85a8.29,8.29,0,0,0,0-16.59H87.92a8.29,8.29,0,0,0,0,16.59Z"/><path class="cls-1" d="M87.92,308.53h8.85a8.29,8.29,0,1,0,0-16.59H87.92a8.29,8.29,0,0,0,0,16.59Z"/><path class="cls-1" d="M87.92,397h8.85a8.29,8.29,0,1,0,0-16.59H87.92a8.29,8.29,0,1,0,0,16.59Z"/><path class="cls-1" d="M238.31,291.94a52.53,52.53,0,1,0,31.26,94.71l.25-.16c.08-.06.43-.34.63-.52a52.5,52.5,0,0,0-32.14-94ZM230,309.5v26.67H203.35A36,36,0,0,1,230,309.5Zm-26.67,43.26h30.82l18.49,24.65a35.91,35.91,0,0,1-49.31-24.65Zm62.57,14.69L246.6,341.7V309.5a35.91,35.91,0,0,1,19.31,58Z"/></svg>