<svg id="Capa_1" data-name="Capa 1" xmlns="http://www.w3.org/2000/svg" viewBox="0 0 352.87 512"><defs><style>.cls-1{fill:#fff;}</style></defs><title>f4</title><path class="cls-1" d="M420.35,134.53C387.93,56.26,299.71,17.66,220.76,45.68L210.31,20.45h0L204,5.12a8.29,8.29,0,0,0-15.32,6.35l3.24,7.83A194.06,194.06,0,0,0,94.44,269.53a194.52,194.52,0,0,0,171,119.72v17.7h-0.55a17.16,17.16,0,0,0-17.14,17.14v35.39c0,0.19,0,.37,0,0.55H229.55a26,26,0,0,0-26,26v17.69a8.29,8.29,0,0,0,8.29,8.29H335.71a8.29,8.29,0,0,0,8.29-8.29V486a26,26,0,0,0-26-26H299.74c0-.18,0-0.37,0-0.55V424.09a17.16,17.16,0,0,0-17.14-17.14h-0.55v-17.7a193.64,193.64,0,0,0,58.2-11.68l2.16,5.23a8.29,8.29,0,0,0,15.32-6.35l-5.26-12.71h0L342,338.49C417.69,302.48,452.77,212.8,420.35,134.53ZM327.42,486v9.4H220.15V486a9.41,9.41,0,0,1,9.4-9.4H318A9.41,9.41,0,0,1,327.42,486Zm-44.23-61.93v35.39c0,0.19,0,.37,0,0.55H264.36c0-.18,0-0.37,0-0.55V424.09a0.55,0.55,0,0,1,.55-0.55h17.69A0.55,0.55,0,0,1,283.18,424.09ZM142.46,249.64c-24.09-58.16-6.55-123.34,38.8-162.27L169,109.88a31.59,31.59,0,0,0-1.46,27.34l3.07,7.42a8.29,8.29,0,0,0,12.25,3.73l11-7.3-14.2,24.14a8.29,8.29,0,0,0-.51,7.38l3.45,8.33-2.66,1.45a20,20,0,0,0-8.48,26.21l3.38,7.07A20,20,0,0,0,191.76,227a25.78,25.78,0,0,0,.49,19.79l1.88,4.27-1.55,18a49.29,49.29,0,0,0,21.82,45.28l6.37,4.24a31.74,31.74,0,0,0,34.68.3l30.64-19.61L296,304.7a61,61,0,0,0,30.74,7.41h0.56l5.2,12.55c-1.44.65-2.88,1.29-4.35,1.9C255.73,356.52,172.45,322,142.46,249.64ZM219.37,64q4.62-1.92,9.3-3.47l-1.61,7.3-12.65-1.65C216,65.4,217.69,64.67,219.37,64ZM414.12,204.83A8.29,8.29,0,0,0,407,205l-5.82,2.89c2.14-2.34,4.43-4.93,6.73-7.68,2.94-3.51,5.54-6.84,7.84-10a141.17,141.17,0,0,1-.31,15.46A8.35,8.35,0,0,0,414.12,204.83ZM405,140.88l0.1,0.25L390.58,150c-2.72,1-6.07.93-7.82-1.55L379,143.15l23.05-8.83C403.11,136.48,404.1,138.65,405,140.88Zm-11-21.24-30.89,11.84A8.29,8.29,0,0,0,359.34,144l9.86,14a22,22,0,0,0,18.21,9.18,25.71,25.71,0,0,0,10.2-2.15,8.24,8.24,0,0,0,1-.53l12-7.31c0.41,1.46.8,2.91,1.15,4.37C410.82,171.74,394.17,192,381,205l-39.59-33.34a8.29,8.29,0,1,0-10.68,12.69l41.62,35a31.71,31.71,0,0,0,32.92,4.9l3.51,13.21a8.19,8.19,0,0,0,.3.83,142.07,142.07,0,0,1-61.87,78.58l-6.8-16.41a8.31,8.31,0,0,0-7.87-5.12l-6.25.16a44.46,44.46,0,0,1-22.39-5.4l-14.19-7.73a8.29,8.29,0,0,0-8.44.3L246.51,305a15.15,15.15,0,0,1-16.55-.15l-6.37-4.23a32.71,32.71,0,0,1-14.48-30l1.74-20.16a8.28,8.28,0,0,0-.67-4.06l-2.74-6.21a9.23,9.23,0,0,1,3.5-11.57l31.16-19.86a20.92,20.92,0,0,1,15.29-2.91l24.73,4.81a8.28,8.28,0,0,0,7-1.88l27.39-23.8a8.27,8.27,0,0,0,2.05-2.7l2.88-6.06A24.1,24.1,0,0,0,307.59,143a8.3,8.3,0,0,0-7.94,1.39l-20.89,16.93L258.71,154a14.18,14.18,0,0,0-19,13.06l-2.37-.82a8.31,8.31,0,0,0-1.77-.4,25.83,25.83,0,0,0-26.45,14.92l-4.87,10.61a8.29,8.29,0,0,0-.71,2.58l-1.63,15.36-8.62,1.05a3.41,3.41,0,0,1-3.5-1.92l-3.38-7.07a3.42,3.42,0,0,1,1.45-4.49l9.21-5a8.29,8.29,0,0,0,3.7-10.46L196,170.07l12.7-21.6a25.74,25.74,0,0,0,3.36-9.82l1.84-14.36a8.29,8.29,0,0,0-12.82-8l-18.93,12.58a15.07,15.07,0,0,1,1.36-11.07L203.4,81.45l23.76,3.1A14.15,14.15,0,0,0,243,72.6l3.42-15.51a8.27,8.27,0,0,0,.17-1.31,140.87,140.87,0,0,1,27-2.61A142.54,142.54,0,0,1,394,119.64Zm-174.84,84,0.69-6.49,4.3-9.38a9.25,9.25,0,0,1,8.72-5.41l18.84,6.51a37.43,37.43,0,0,0-18.57,5.86Zm43.1-26.49-2.93-5.17,18.14,6.59a8.3,8.3,0,0,0,8.05-1.35L305.51,161a7.54,7.54,0,0,1,1.12,1.87,7.43,7.43,0,0,1-.14,6.13l-2.13,4.5-23,20-20.76-4q-1.4-.27-2.8-0.44A8.29,8.29,0,0,0,262.3,177.11ZM205.82,359.23a177.48,177.48,0,0,1-7.59-324.6L205.44,52C129.8,88,94.72,177.72,127.14,256a158.67,158.67,0,0,0,199.59,88.85l7.2,17.39A176.2,176.2,0,0,1,205.82,359.23Z" transform="translate(-79.57 0)"/><path class="cls-1" d="M169.6,171.6l-5.8-18A8.29,8.29,0,1,0,148,158.65l5.8,18A8.29,8.29,0,1,0,169.6,171.6Z" transform="translate(-79.57 0)"/><path class="cls-1" d="M280.8,142.78a8.28,8.28,0,0,0,3.17-.63l5.83-2.42a8.29,8.29,0,0,0-6.35-15.32l-5.83,2.42A8.3,8.3,0,0,0,280.8,142.78Z" transform="translate(-79.57 0)"/><path class="cls-1" d="M302.56,113.47l25.19,8.36A8.29,8.29,0,1,0,333,106.08l-25.19-8.36A8.29,8.29,0,0,0,302.56,113.47Z" transform="translate(-79.57 0)"/></svg>