<svg id="Layer_1" data-name="Layer 1" xmlns="http://www.w3.org/2000/svg" viewBox="0 0 467.47 512"><defs><style>.cls-1{fill:#fff;}</style></defs><title>f6</title><path class="cls-1" d="M487.72,341.59A34.86,34.86,0,0,0,437,323.45l-86.44,51.87-11.89,5.09H276.27a1.67,1.67,0,0,1-1.49-2.4,1.65,1.65,0,0,1,.93-0.83L323,360.26c18.32-6.16,28.81-24.89,23.9-42.7A34.57,34.57,0,0,0,329.72,296a34.92,34.92,0,0,0-27.39-2.29L253.49,310l-128.24,8.55a34.82,34.82,0,0,0-22.31,10.12L33.18,398.44c-13.38,13.38-14.62,34.61-2.82,48.33,3.12,3.63,16.56,16.51,36.71,35.74,11.74,11.21,22.83,21.8,28.1,27.06a8.3,8.3,0,0,0,11.18.51l38.32-31.93a44.87,44.87,0,0,1,28.67-10.38H304.5a34.66,34.66,0,0,0,13.73-2.82l61.91-26.53,0.51-.24,3.14-1.61,0.49-.27L472,383.69c14.79-8.88,21.42-26.58,15.75-42.1h0Zm-24.29,27.87L376,421.93l-2.64,1.35L311.7,449.7a18.18,18.18,0,0,1-7.2,1.48H173.33A61.48,61.48,0,0,0,134,465.4l-32.55,27.13c-5.95-5.78-14.28-13.73-23-22-14.6-13.94-32.77-31.28-35.59-34.56-6.07-7.05-5.18-18.62,2-25.78l69.76-69.76a18.23,18.23,0,0,1,11.68-5.3l129.3-8.62a8.25,8.25,0,0,0,2.07-.41l49.86-16.62A18.23,18.23,0,0,1,331,322c2.53,9.18-3.41,19.31-13.25,22.59l-0.17.06-47.41,16.94A18.25,18.25,0,0,0,276.27,397h64.08a8.29,8.29,0,0,0,3.27-.67l14-6a8.17,8.17,0,0,0,1-.51l86.93-52.16a18.27,18.27,0,0,1,26.62,9.62c2.9,7.93-.85,17.46-8.71,22.18h0Z" transform="translate(-22.27)"/><path class="cls-1" d="M322.51,264.29c72.87,0,132.15-59.28,132.15-132.15S395.37,0,322.51,0,190.36,59.28,190.36,132.15,249.64,264.29,322.51,264.29Zm0-247.71A115.56,115.56,0,1,1,206.95,132.15,115.69,115.69,0,0,1,322.51,16.59Z" transform="translate(-22.27)"/><path class="cls-1" d="M277.72,163.11a8.29,8.29,0,1,0-16.59,0c0,16,14.31,29.53,35.39,35.68v4.13a8.29,8.29,0,0,0,16.59,0v-1q4.59,0.43,9.4.44t9.4-.44v1a8.29,8.29,0,0,0,16.59,0v-4.13c21.07-6.15,35.39-19.65,35.39-35.68s-14.31-29.53-35.39-35.68V82.94c11.7,4.45,18.8,11.58,18.8,18.24a8.29,8.29,0,0,0,16.59,0c0-16-14.31-29.53-35.39-35.68V61.37a8.29,8.29,0,1,0-16.59,0v1q-4.59-.43-9.4-0.44t-9.4.44v-1a8.29,8.29,0,1,0-16.59,0V65.5c-21.07,6.15-35.39,19.65-35.39,35.68s14.31,29.53,35.39,35.68v44.48C284.82,176.9,277.72,169.77,277.72,163.11Zm70.77-18.24c11.7,4.45,18.8,11.58,18.8,18.24s-7.1,13.79-18.8,18.24V144.87h0ZM313.11,79a84.54,84.54,0,0,1,18.8,0v45.25q-4.59-.43-9.4-0.44a83.3,83.3,0,0,1-9.4-.52V79Zm0,61q4.59,0.43,9.4.44a83.3,83.3,0,0,1,9.4.52v44.29a84.54,84.54,0,0,1-18.8,0V140Zm-35.39-38.82c0-6.66,7.1-13.79,18.8-18.24v36.48C284.82,115,277.72,107.84,277.72,101.18Z" transform="translate(-22.27)"/></svg>