<svg id="Capa_1" data-name="Capa 1" xmlns="http://www.w3.org/2000/svg" viewBox="0 0 512 454.49"><defs><style>.cls-1{fill:#fff;}</style></defs><title>f7</title><path class="cls-1" d="M506.65,218.94s-45.12-34.61-45.12-34.75-3.77-3.67-3.77-11.08V97.24a15.51,15.51,0,0,0-15.49-15.49h-55.7a15.51,15.51,0,0,0-15.49,15.49V110c0,3.54-1.93,1.91-1.93,1.91l-102.69-80a14.46,14.46,0,0,0-21.91,4.73l-24,45.73a21.54,21.54,0,0,0,0,18.92l31.06,59.48s2.27,3.07-.82,8.51c-8.14,14.31-38.88,53.17-38.88,53.17a21.3,21.3,0,0,0-2.68,18.83L217.41,264s2.66,7.25-2.48,3c-10-8.23-27.46-21.42-36.43-28.79-4.9-4-1.1-8.88-1.1-8.88l30.67-53.66a18.28,18.28,0,0,0-1.92-20.35l-37.8-44.25a15.81,15.81,0,0,0-21.64-2.2L5.35,218.94c-5.49,4.27-6.06,9.82-4.77,13.59s5.15,7.8,12.11,7.8H43.83A2.82,2.82,0,0,1,47,243.27V467.75a15.51,15.51,0,0,0,15.49,15.49H200.75a15.51,15.51,0,0,0,15.49-15.49V401.59c0-3.09-.08-8.08-0.19-11.08,0-.2-0.41-20.58,11.59-32.9,6.39-6.57,15.16-9.76,26.81-9.76,12.35,0,22.1,3.49,29,10.38,12.36,12.41,12.42,32.31,12.42,32.47,0,3-.07,7.9-0.07,10.9v66.17a15.51,15.51,0,0,0,15.49,15.49H449.49A15.51,15.51,0,0,0,465,467.75V244.84c0-4.88,4.19-4.52,4.19-4.52H499.3c7,0,10.82-4,12.11-7.8S512.14,223.21,506.65,218.94ZM391.28,104.74a2.75,2.75,0,0,1,2.69-2.79H434a3.36,3.36,0,0,1,3.51,3.58v53.55c0,6-3.42,3.4-3.42,3.4l-42.32-33c-0.2-.26-0.53-0.78-0.53-2.63C391.28,126.89,391.28,110.67,391.28,104.74Zm69,115.37a15.51,15.51,0,0,0-15.49,15.49V458s0.66,5-4.9,5h-118a5.51,5.51,0,0,1-5.88-5.52V401.59c0-2.93,0-7.72.07-10.65,0-1.15.14-28.31-18.15-46.82-10.8-10.94-25.41-16.48-43.42-16.48-17.22,0-31.16,5.39-41.42,16-18,18.58-17.21,46.35-17.17,47.52,0.1,2.81.18,7.58,0.18,10.42V459.2s0.35,3.84-5.88,3.84h-117c-6.74,0-5.91-5.52-5.91-5.52V235.61a15.51,15.51,0,0,0-15.49-15.49H41.59c-4,0-.63-3.29-0.63-3.29L153.2,129.43s2.44-2,4.1-.2c5.27,5.87,21.62,25.33,27.78,32.53a3.74,3.74,0,0,1-.52,5.78L97.93,223.08a8.08,8.08,0,1,0,8.72,13.61s47.2-29.78,62.63-40.16c3.53-2.37,3.24.59,3.24,0.59L155,227.73a16.67,16.67,0,0,0,4.07,21l72,56.81a13.3,13.3,0,0,0,8.27,3.16h0a10.81,10.81,0,0,0,8.85-4.58c1.58-2.26,3-6.12,1-11.7l-21-57.68a2.7,2.7,0,0,1,.08-0.59l42.28-57.82a19.68,19.68,0,0,0,1.48-19.76s-10.81-21-14.6-28,2.26-2.92,2.26-2.92L408.1,236.37a8.08,8.08,0,1,0,9.67-13L241.44,91.8a3.06,3.06,0,0,1-.83-4.26c3.62-6.56,13-25,16.81-31.93,1.67-3.06,4.78-1.39,4.78-1.39L469.47,215.6s4.08,4.52-1.75,4.52h-7.45Z" transform="translate(0 -28.76)"/></svg>