<svg id="Capa_1" data-name="Capa 1" xmlns="http://www.w3.org/2000/svg" viewBox="0 0 512 503.43"><defs><style>.cls-1{fill:#fff;}</style></defs><title>f8</title><path class="cls-1" d="M163.69,343.44a9.14,9.14,0,0,0-12.94,0l-32.36,32.35L86,343.44a9.15,9.15,0,0,0-12.94,12.94l32.36,32.35L73.09,421.09A9.15,9.15,0,1,0,86,434l32.36-32.35L150.76,434a9.15,9.15,0,0,0,12.94-12.94l-32.36-32.35,32.36-32.35A9.15,9.15,0,0,0,163.69,343.44Z" transform="translate(0 -4.29)"/><path class="cls-1" d="M506.7,378.7c-18.38-34.74-82.2-72.41-85-74.06-11.7-6.66-23.81-8.72-34.06-5.91a30.48,30.48,0,0,0-18.27,14.15C360,324,348.46,337.1,345.65,339.12c-21.67,14.67-38.9,12.94-57.61-5.76L182.91,228.24c-18.72-18.72-20.44-36-5.78-57.58,2.05-2.84,15.09-14.42,26.27-23.76a30.36,30.36,0,0,0,14.14-18.26c2.81-10.12.65-22.54-6-34.16-1.58-2.71-39.26-66.53-74-84.9a44.93,44.93,0,0,0-53,8L61.31,40.77c-36.74,36.73-50,78.36-39.55,123.74,8,34.73,30.38,71.54,66.14,109.49C37.34,287.73,0,333.89,0,388.73a119.12,119.12,0,0,0,119,119c54.73,0,100.82-37.2,114.64-87.6,41,40.68,80.77,65.75,118.14,74.39a130.76,130.76,0,0,0,29.5,3.48c34,0,65.61-14.41,94.23-43l23.22-23.22A44.9,44.9,0,0,0,506.7,378.7ZM119,489.41a100.64,100.64,0,0,1-12-200.58l0.18,0c1.35-.16,2.59-0.25,3.86-0.36,2.63-.2,5.25-0.4,7.93-0.4h0A100.8,100.8,0,0,1,219.66,388.73c0,2.71-.19,5.37-0.4,8-0.11,1.24-.19,2.44-0.35,3.77A100.8,100.8,0,0,1,119,489.41Zm366.8-70.61L462.56,442c-32.42,32.43-67.31,43.72-106.67,34.66-34.43-8-71.7-31.82-110.79-70.91l-7.56-7.55c0.29-3.34.43-6.47,0.43-9.48a119.12,119.12,0,0,0-119-119h0c-3,0-6.13.15-9.44,0.43-38.5-38.72-62-75.66-69.91-109.79C30.5,121,41.84,86.14,74.25,53.73L97.47,30.51A26.75,26.75,0,0,1,129,25.76c30.14,16,66.4,77.37,66.71,77.89,4.11,7.21,5.67,14.73,4.18,20.11a12.29,12.29,0,0,1-6.25,7.64l-1.38,1c-7.81,6.52-26.39,22.28-30.28,28a75.74,75.74,0,0,0-11.27,24.4,129.68,129.68,0,0,1-13.5-44.67A9.16,9.16,0,1,0,119,142c6.61,63.64,56.1,105.06,58.2,106.79,0.24,0.19.51,0.27,0.76,0.43l97.11,97.11c0.4,0.4.81,0.76,1.23,1.15a8.8,8.8,0,0,0,1,1.44c1.73,1.71,43.05,41.8,106.16,48.35,0.32,0,.64,0,1,0a9.15,9.15,0,0,0,.93-18.26,161.24,161.24,0,0,1-50.78-14.26,78.53,78.53,0,0,0,21.35-10.5c5.75-3.89,21.52-22.47,28-30.28l1-1.38a12.32,12.32,0,0,1,7.64-6.25c5.38-1.5,12.9.07,20,4.12,0.62,0.37,62,36.63,78,66.78A26.66,26.66,0,0,1,485.78,418.8Z" transform="translate(0 -4.29)"/></svg>