<svg id="Capa_1" data-name="Capa 1" xmlns="http://www.w3.org/2000/svg" viewBox="0 0 512 460.8"><defs><style>.cls-1{fill:#fff;}</style></defs><title>f8</title><path class="cls-1" d="M503.47,392.53h-51.2v-256H179.2v256H93.87V59.73a8.53,8.53,0,0,0-8.53-8.53H67.05a34.13,34.13,0,1,0,0,17.07H76.8v332.8a8.53,8.53,0,0,0,8.53,8.53h60a42.67,42.67,0,1,0,50.67,0H401.33a42.67,42.67,0,1,0,50.67,0h51.46A8.53,8.53,0,1,0,503.47,392.53Zm-76.8,76.8a25.6,25.6,0,1,1,25.6-25.6A25.63,25.63,0,0,1,426.67,469.33ZM401.07,153.6H435.2V341.33h-8.53V332.8a8.53,8.53,0,1,0-17.07,0v8.53h-8.53V153.6ZM281.6,341.33H247.47V204.8H281.6V341.33ZM298.67,204.8H332.8V341.33H298.67V204.8Zm51.2,0H384V341.33H349.87V204.8Zm-153.6-51.2H384v8.53h-8.53a8.53,8.53,0,0,0,0,17.07H384v8.53H196.27V153.6ZM34.13,76.8A17.07,17.07,0,1,1,48.83,51.2H42.67a8.53,8.53,0,0,0,0,17.07h6.16A17,17,0,0,1,34.13,76.8ZM170.67,469.33a25.6,25.6,0,1,1,25.6-25.6A25.63,25.63,0,0,1,170.67,469.33Zm25.6-76.8V204.8h8.53v8.53a8.53,8.53,0,0,0,17.07,0V204.8h8.53V392.53H196.27Zm51.2-8.53H256a8.53,8.53,0,0,0,0-17.07h-8.53V358.4H435.2v34.13H247.47V384Z" transform="translate(0 -25.6)"/></svg>