<svg id="Capa_1" data-name="Capa 1" xmlns="http://www.w3.org/2000/svg" viewBox="0 0 465 450.02"><title>fax</title><path d="M300.87,396H189.57a7.5,7.5,0,0,0,0,15h111.3A7.5,7.5,0,0,0,300.87,396Z" transform="translate(0 -7.49)"/><path d="M300.87,366H189.57a7.5,7.5,0,0,0,0,15h111.3A7.5,7.5,0,0,0,300.87,366Z" transform="translate(0 -7.49)"/><path d="M300.87,336H189.57a7.5,7.5,0,0,0,0,15h111.3A7.5,7.5,0,0,0,300.87,336Z" transform="translate(0 -7.49)"/><path d="M300.87,255.26H189.57a7.5,7.5,0,0,0-7.5,7.5v37.72a7.5,7.5,0,0,0,7.5,7.5h20a7.5,7.5,0,0,0,0-15h-12.5V270.26h96.3V293h-53.8a7.5,7.5,0,1,0,0,15h61.3a7.5,7.5,0,0,0,7.5-7.5V262.76A7.5,7.5,0,0,0,300.87,255.26Z" transform="translate(0 -7.49)"/><path d="M380.86,255.26A41.11,41.11,0,1,0,422,296.37,41.15,41.15,0,0,0,380.86,255.26Zm0,67.22A26.11,26.11,0,1,1,407,296.37,26.14,26.14,0,0,1,380.86,322.48Z" transform="translate(0 -7.49)"/><path d="M439.5,208.73H425V115.61a7.5,7.5,0,0,0-7.5-7.5H392.92V15a7.5,7.5,0,0,0-7.5-7.5H216.31a7.5,7.5,0,0,0-7.5,7.5v93.12H184.23a7.5,7.5,0,0,0-7.5,7.5v93.12H150.49c-0.77-42.2-2.08-72.22-2.1-72.64,0,0,0-.08,0-0.13a22.26,22.26,0,0,0-12.92-18.28c-3.27-3.17-11.3-5.13-39.94-5.13s-36.67,2-39.94,5.13A22.26,22.26,0,0,0,42.66,136v0.13c0,0.42-1.33,30.44-2.1,72.64h-15A25.53,25.53,0,0,0,0,234.23V432a25.53,25.53,0,0,0,25.5,25.5h414A25.53,25.53,0,0,0,465,432V234.23A25.53,25.53,0,0,0,439.5,208.73ZM410,123.11v85.62H392.92V123.11H410ZM223.81,22.49H377.92V208.73H223.81V22.49ZM191.73,123.11h17.08v85.62H191.73V123.11ZM57.63,136.83a7.41,7.41,0,0,1,4.75-5.7,7.5,7.5,0,0,0,3.4-1.92c2.48-.57,9.85-1.66,29.73-1.66s27.25,1.1,29.73,1.66a7.49,7.49,0,0,0,3.4,1.92,7.41,7.41,0,0,1,4.75,5.7c0.11,2.49,2.6,60.49,2.63,128.19s-2.53,125.71-2.63,128.2a7.41,7.41,0,0,1-4.75,5.7,7.5,7.5,0,0,0-3.4,1.92c-2.48.57-9.85,1.66-29.73,1.66s-27.25-1.1-29.73-1.66a7.49,7.49,0,0,0-3.4-1.92,7.41,7.41,0,0,1-4.75-5.7C57.53,390.74,55,332.75,55,265S57.53,139.32,57.63,136.83ZM450,432a10.51,10.51,0,0,1-10.5,10.5H25.5A10.51,10.51,0,0,1,15,432V234.23a10.51,10.51,0,0,1,10.5-10.5H40.31c-0.18,13-.3,27-0.31,41.31,0,69.21,2.63,128.35,2.65,128.94,0,0,0,.08,0,0.13a22.26,22.26,0,0,0,12.92,18.28c3.27,3.17,11.3,5.13,39.94,5.13s36.67-2,39.94-5.13a22.26,22.26,0,0,0,12.92-18.28s0-.08,0-0.13c0-.59,2.61-59.73,2.65-128.95,0-14.34-.13-28.25-0.31-41.3H439.5a10.51,10.51,0,0,1,10.5,10.5V432Z" transform="translate(0 -7.49)"/><path d="M262.17,173.42h38.69a7.5,7.5,0,0,0,0-15H262.17A7.5,7.5,0,0,0,262.17,173.42Z" transform="translate(0 -7.49)"/><path d="M262.17,123.11h77.38a7.5,7.5,0,0,0,0-15H262.17A7.5,7.5,0,0,0,262.17,123.11Z" transform="translate(0 -7.49)"/><path d="M262.17,72.8h77.38a7.5,7.5,0,0,0,0-15H262.17A7.5,7.5,0,1,0,262.17,72.8Z" transform="translate(0 -7.49)"/></svg>