<?xml version="1.0" encoding="utf-8"?>
<!-- Generator: Adobe Illustrator 19.2.0, SVG Export Plug-In . SVG Version: 6.00 Build 0)  -->
<svg version="1.1" id="Capa_1" xmlns="http://www.w3.org/2000/svg" xmlns:xlink="http://www.w3.org/1999/xlink" x="0px" y="0px"
	 viewBox="0 0 174 174" style="enable-background:new 0 0 174 174;" xml:space="preserve">
<style type="text/css">
	.st0{fill:#565656;}
</style>
<path class="st0" d="M171.5,163.6H2.5c-1.4,0-2.5-1.1-2.5-2.5V12.9c0-1.4,1.1-2.5,2.5-2.5h151.7c1.4,0,2.5,1.1,2.5,2.5v73.9h14.8
	c1.4,0,2.5,1.1,2.5,2.5v71.9C174,162.5,172.9,163.6,171.5,163.6z M45.5,158.6H169V91.8h-51.7c-1.4,0-2.5-1.1-2.5-2.5v-4.8h-6.2
	c-1.4,0-2.5-1.1-2.5-2.5s1.1-2.5,2.5-2.5h6.2V63.3c0-1.4,1.1-2.5,2.5-2.5s2.5,1.1,2.5,2.5v23.5h14.5V15.4h-14.5v18.3
	c0,1.4-1.1,2.5-2.5,2.5s-2.5-1.1-2.5-2.5V26H75.5c-1.4,0-2.5-1.1-2.5-2.5v-8.1h-9.1V27c0,1.4-1.1,2.5-2.5,2.5s-2.5-1.1-2.5-2.5V15.4
	h-2.7v6.4c0,1.4-1.1,2.5-2.5,2.5h-0.8c0.4,1,0.7,2.1,0.7,3.3v6.5c0,4.6-3.7,8.3-8.3,8.3s-8.3-3.7-8.3-8.3v-6.5
	c0-1.2,0.2-2.3,0.7-3.3h-0.8c-1.4,0-2.5-1.1-2.5-2.5v-6.4h-9.1v33.1c0,1.4-1.1,2.5-2.5,2.5h-3.2v14h39.4V53.5c0-1.4,1.1-2.5,2.5-2.5
	s2.5,1.1,2.5,2.5v26H70c1.4,0,2.5,1.1,2.5,2.5s-1.1,2.5-2.5,2.5h-6.2v12.2c0,1.4-1.1,2.5-2.5,2.5s-2.5-1.1-2.5-2.5V70H23.2v71.8H43
	c1.4,0,2.5,1.1,2.5,2.5V158.6z M5,158.6h35.5v-11.8H20.7c-1.4,0-2.5-1.1-2.5-2.5v-43.5H5V158.6z M5,95.8h13.2V70H5V95.8z M148,86.8
	h3.7V15.4H148V86.8z M139.3,86.8h3.7V15.4h-3.7V86.8z M5,64.1h9.5V51H5V64.1z M17,46h3.2V15.4H5V46H17z M45.2,24.3
	c-1.8,0-3.3,1.5-3.3,3.3v6.5c0,1.8,1.5,3.3,3.3,3.3s3.3-1.5,3.3-3.3v-6.5C48.6,25.8,47.1,24.3,45.2,24.3z M78,21h36.8v-5.6H78V21z
	 M45.2,19.3h5.9v-3.9H39.3v3.9H45.2z M100,151.2h-20c-1.4,0-2.5-1.1-2.5-2.5v-45.8c0-1.4,1.1-2.5,2.5-2.5h20c1.4,0,2.5,1.1,2.5,2.5
	v45.8C102.5,150.1,101.3,151.2,100,151.2z M82.4,146.2h15v-2.5h-8.9c-1.4,0-2.5-1.1-2.5-2.5v-30.8c0-1.4,1.1-2.5,2.5-2.5h8.9v-2.5
	h-15V146.2z M91.1,138.7h6.4v-25.8h-6.4V138.7z M154.2,149.7c-1.4,0-2.5-1.1-2.5-2.5v-43c0-1.4,1.1-2.5,2.5-2.5s2.5,1.1,2.5,2.5v7.8
	c1.3,0.1,2.3,1.2,2.3,2.5V137c0,1.3-1,2.4-2.3,2.5v7.8C156.7,148.6,155.6,149.7,154.2,149.7z M130.1,146.7c-8,0-14.2-8.6-14.2-19.5
	s6.2-19.5,14.2-19.5s14.2,8.6,14.2,19.5S138,146.7,130.1,146.7z M130.1,112.7c-5,0-9.2,6.6-9.2,14.5s4.2,14.5,9.2,14.5
	c5,0,9.2-6.6,9.2-14.5S135,112.7,130.1,112.7z"/>
</svg>
