<svg id="Layer_1" data-name="Layer 1" xmlns="http://www.w3.org/2000/svg" xmlns:xlink="http://www.w3.org/1999/xlink" viewBox="0 0 2691.8 1122.9"><defs><style>.cls-1{fill:none;}.cls-2{fill:#298bb3;}.cls-3{opacity:0.2;}.cls-3,.cls-9{isolation:isolate;}.cls-4{fill:#25aae1;}.cls-5{fill:#1c78a5;}.cls-6{fill:#074f7b;}.cls-7{fill:url(#linear-gradient);}.cls-8{fill:#042e42;}.cls-10{fill:#444;}</style><linearGradient id="linear-gradient" x1="-65.67" y1="210.35" x2="758.43" y2="210.35" gradientTransform="matrix(1, 0, 0, -1, 0, 1122)" gradientUnits="userSpaceOnUse"><stop offset="0" stop-color="#079bc5"/><stop offset="1" stop-color="#105e80"/></linearGradient></defs><title>Logo</title><g id="_Group_" data-name="&lt;Group&gt;"><path id="_Path_" data-name="&lt;Path&gt;" class="cls-1" d="M824.1,996.8"/><polygon id="_Path_2" data-name="&lt;Path&gt;" class="cls-2" points="590.9 395.2 589.3 878.4 732.5 948.8 824.1 903.1 824.1 275.4 590.9 395.2"/><polygon id="_Path_3" data-name="&lt;Path&gt;" class="cls-3" points="695.1 144.4 695.1 726.5 943.8 831.8 941.2 20.1 695.1 144.4"/><polygon id="_Path_4" data-name="&lt;Path&gt;" class="cls-4" points="709.3 130.2 709.3 712.3 955.4 837.7 955.4 5.9 709.3 130.2"/><polygon id="_Path_5" data-name="&lt;Path&gt;" class="cls-5" points="709.3 712.3 131 996.8 383.1 1122.9 955.4 837.7 709.3 712.3"/><polygon id="_Path_6" data-name="&lt;Path&gt;" class="cls-6" points="824.1 903.1 824.1 996.8 730.1 950 824.1 903.1"/><polygon id="_Path_7" data-name="&lt;Path&gt;" class="cls-2" points="371.8 390.2 371.9 878.1 232.4 946.9 132.6 897.2 132.6 269.5 371.8 390.2"/><polygon id="_Path_8" data-name="&lt;Path&gt;" class="cls-3" points="262.7 138.4 262.7 720.6 14.2 824.6 14.2 14.2 262.7 138.4"/><polygon id="_Path_9" data-name="&lt;Path&gt;" class="cls-4" points="248.5 124.2 248.5 706.4 0 831.8 0 0 248.5 124.2"/><polygon id="_Path_10" data-name="&lt;Path&gt;" class="cls-3" points="262.7 698.7 824.1 978.9 824.1 996.8 589.3 1111.4 262.7 831.8 262.7 698.7"/><polygon id="_Path_11" data-name="&lt;Path&gt;" class="cls-7" points="248.5 706.4 824.1 996.8 577.9 1116.9 0 831.8 248.5 706.4"/><polygon id="_Path_12" data-name="&lt;Path&gt;" class="cls-6" points="131 896.4 131 996.8 233.3 946.9 131 896.4"/></g><polygon id="_Path_13" data-name="&lt;Path&gt;" class="cls-8" points="1166.4 315.9 1217.8 256.6 1217.8 347.5 1374.8 347.5 1374.8 245.5 1438.8 245.5 1438.8 469.9 1404 506.5 1168.8 506.5 1168.8 445.5 1374.8 445.5 1374.8 410.5 1166.4 410.5 1166.4 315.9"/><path id="_Compound_Path_" data-name="&lt;Compound Path&gt;" class="cls-8" d="M1673.6,245.5l-198.9.8V506.5h53v-49l16.4-12H1713l36.6-32.6v-92Zm16.2,152h-162v-83h162v83Z"/><polygon id="_Path_14" data-name="&lt;Path&gt;" class="cls-8" points="1846.8 314.5 1846.8 445.5 1998.8 445.5 1998.8 410.5 1889.8 410.5 1889.8 347.5 2001.7 347.5 2061.8 407.8 2061.8 473.8 2023.8 506.5 1785.8 506.5 1785.8 314.5 1846.8 314.5"/><polygon id="_Path_15" data-name="&lt;Path&gt;" class="cls-8" points="1785.8 302.5 1785.8 242.1 2024 242.8 2061.8 279.3 2061.8 302.5 1850.1 302.5 1785.8 302.5"/><polygon id="_Path_16" data-name="&lt;Path&gt;" class="cls-8" points="2097.8 347.5 2097.8 506.5 2161.8 506.5 2161.8 434.5 2324.8 434.5 2324.8 506.5 2367.8 506.5 2367.8 308.4 2312 245.5 2097.8 245.5 2097.8 309.5 2324.8 309.5 2324.8 384.5 2161.8 384.5 2161.8 347.5 2097.8 347.5"/><polygon id="_Path_17" data-name="&lt;Path&gt;" class="cls-8" points="2408.8 245.5 2408.8 506.5 2469.8 506.5 2469.8 410.5 2636.8 410.5 2636.8 506.5 2691.8 506.5 2691.8 245.5 2636.8 245.5 2636.8 347.5 2469.8 347.5 2469.8 245.5 2408.8 245.5"/><polygon id="_Path_18" data-name="&lt;Path&gt;" class="cls-8" points="1150.8 581.4 1150.8 798.9 1179.4 822.5 1433.8 822.5 1433.8 764.5 1210.8 764.5 1210.8 640.5 1371.8 640.5 1371.8 705.5 1433.8 705.5 1433.8 605.6 1408.8 579.9 1150.8 581.4"/><polygon id="_Path_19" data-name="&lt;Path&gt;" class="cls-8" points="1459.8 579.5 1459.8 640.5 1571.8 640.5 1571.8 822.5 1635.8 822.5 1635.8 640.5 1746.8 640.5 1746.8 579.5 1459.8 579.5"/><path id="_Compound_Path_2" data-name="&lt;Compound Path&gt;" class="cls-8" d="M1999.7,580.7l-222.9,1.5v241h54v-58h183.6l37.4-33.2V630.5Zm-6.9,131.8h-157v-75h157v75Z"/><path id="_Compound_Path_3" data-name="&lt;Compound Path&gt;" class="cls-8" d="M2342.5,579.5H2118.8l-26,26.1V786.8l41.2,35.7h208.5l25.3-23.3V605.6Zm-25.4,190.8H2144.2V633.8h172.9V770.3Z"/><polygon id="_Path_20" data-name="&lt;Path&gt;" class="cls-8" points="2401.8 579.5 2401.8 762.6 2467.9 822.5 2691.8 822.5 2691.8 579.5 2631.8 579.5 2631.8 764.5 2462.8 764.5 2462.8 579.5 2401.8 579.5"/><polygon id="_Path_21" data-name="&lt;Path&gt;" class="cls-8" points="2561.8 507.5 2506.8 562.2 2506.8 579.5 2553.7 579.5 2616.8 524.8 2616.8 509 2561.8 507.5"/><g id="_Group_2" data-name="&lt;Group&gt;" class="cls-9"><path class="cls-10" d="M1232.51,917q-8.91,0-13.8,6.7t-4.89,18.67q0,24.91,18.69,24.91,7.84,0,19-3.92v13.24a52.76,52.76,0,0,1-20.48,3.82q-16.25,0-24.86-9.86t-8.61-28.29A46.19,46.19,0,0,1,1201.8,922a30.55,30.55,0,0,1,12.15-13.4,35.93,35.93,0,0,1,18.57-4.66,50.12,50.12,0,0,1,21.8,5.25L1249.22,922a84.52,84.52,0,0,0-8.4-3.46A25.09,25.09,0,0,0,1232.51,917Z"/><path class="cls-10" d="M1296.08,979.44h-15.79V918.11h-20.22V905h56.23v13.14h-20.22v61.33Z"/><path class="cls-10" d="M1379.21,928.19q0,12-7.51,18.39t-21.37,6.37h-6.77v26.49h-15.79V905h23.79q13.55,0,20.61,5.83T1379.21,928.19ZM1343.55,940h5.2q7.28,0,10.9-2.88t3.62-8.38q0-5.55-3-8.2t-9.5-2.65h-7.18V940Z"/><path class="cls-10" d="M1460.86,942.1q0,18.49-9.17,28.42t-26.28,9.93q-17.12,0-26.28-9.93T1390,942q0-18.59,9.19-28.4t26.36-9.81q17.17,0,26.26,9.88T1460.86,942.1Zm-54.35,0q0,12.48,4.74,18.8t14.16,6.32q18.9,0,18.9-25.11t-18.8-25.16q-9.42,0-14.21,6.34T1406.51,942.1Z"/><path class="cls-10" d="M1476.3,905h14.21v36l-0.2,9.63-0.51,11h0.31L1524.48,905h18.9v74.47h-14.06V943.68q0-7.18.92-21.29h-0.41l-34.54,57h-19V905Z"/><path class="cls-10" d="M1593.71,979.44L1575.78,921h-0.46q1,17.83,1,23.79v34.64h-14.11V905h21.5l17.62,56.95h0.31L1620.3,905h21.5v74.47h-14.72V944.19q0-2.49.08-5.76t0.69-17.32h-0.46l-19.2,58.32h-14.47Z"/><path class="cls-10" d="M1678.77,966.29h5.76a175.26,175.26,0,0,0,11.66-29.52,202.38,202.38,0,0,0,6.37-31.81H1746v61.33h9.93v34.84h-15.23v-21.7H1694v21.7h-15.23V966.29Zm36.32-48.19a190.13,190.13,0,0,1-14,48.19h29.08V918.11h-15.13Z"/><path class="cls-10" d="M1826.29,979.44h-15.74V918.11h-18.24l-0.82,6.83q-3.16,26-5.58,36.55t-7.06,14.8q-4.63,4.28-12.53,4.18a23.19,23.19,0,0,1-7.54-1.12V966.4a17.05,17.05,0,0,0,5.55,1,4.85,4.85,0,0,0,4.28-2.47q1.58-2.47,3-9.17t3.72-22q2.32-15.25,3.95-28.86h47v74.47Z"/><path class="cls-10" d="M1870.14,950.86l-17.42,28.58H1835.2l21.19-32.75a19.86,19.86,0,0,1-9.68-7.87,23,23,0,0,1-3.36-12.56q0-10.24,7.26-15.76t20.86-5.53h24.25v74.47h-15.79V950.86h-9.78Zm9.78-33h-7.79q-6.11,0-9.47,2.19t-3.36,7.28a9.82,9.82,0,0,0,3.26,7.79q3.26,2.85,10,2.85h7.39V917.9Z"/><path class="cls-10" d="M2000.49,979.44h-15.74V918.11h-18.24l-0.82,6.83q-3.16,26-5.58,36.55t-7.06,14.8q-4.63,4.28-12.53,4.18a23.19,23.19,0,0,1-7.54-1.12V966.4a17.05,17.05,0,0,0,5.55,1,4.85,4.85,0,0,0,4.28-2.47q1.58-2.47,3-9.17t3.72-22q2.32-15.25,3.95-28.86h47v74.47Z"/><path class="cls-10" d="M2115.51,942.1q0,18.34-8.58,28.35t-24.63,10q-14.72,0-23.18-8.48t-9.78-24.68h-14.26v32.14h-15.79V905h15.79v29.19h14.57q1.73-14.72,10.11-22.54t22.64-7.82q16.1,0,24.6,10T2115.51,942.1Zm-50,0q0,12.43,4.28,18.77t12.48,6.34q16.91,0,16.91-25.11,0-12.43-4.2-18.8t-12.5-6.37q-8.36,0-12.66,6.37T2065.54,942.1Z"/><path class="cls-10" d="M2122,966.29h5.76a175.26,175.26,0,0,0,11.66-29.52,202.38,202.38,0,0,0,6.37-31.81h43.4v61.33h9.93v34.84h-15.23v-21.7h-46.66v21.7H2122V966.29Zm36.32-48.19a190.13,190.13,0,0,1-14,48.19h29.08V918.11h-15.13Z"/><path class="cls-10" d="M2253.5,979.44h-42.89V905h42.89V917.9h-27.1v16.35h25.21v12.94H2226.4v19.2h27.1v13Z"/><path class="cls-10" d="M2269,905h14.21v36l-0.2,9.63-0.51,11h0.31L2317.22,905h18.9v74.47h-14.06V943.68q0-7.18.92-21.29h-0.41l-34.54,57h-19V905Zm58.22-24.2q-1,9.52-7.18,13.88T2302.14,899q-12.07,0-17.85-4.18t-6.49-14.06h13.91q0.36,5.25,2.62,7.36t8.12,2.11q5.14,0,7.67-2.32t3.08-7.16h14.06Z"/></g></svg>