<svg id="Capa_1" data-name="Capa 1" xmlns="http://www.w3.org/2000/svg" viewBox="0 0 31.01 22.05"><title>mail</title><path d="M25.11,21.51a0.5,0.5,0,0,1-.34-0.14L19,16a0.5,0.5,0,1,1,.69-0.73l5.75,5.4A0.5,0.5,0,0,1,25.11,21.51Z" transform="translate(0 -4.48)"/><path d="M5.9,21.51a0.5,0.5,0,0,1-.34-0.86l5.76-5.4A0.5,0.5,0,1,1,12,16l-5.76,5.4A0.5,0.5,0,0,1,5.9,21.51Z" transform="translate(0 -4.48)"/><path d="M28.51,26.53H2.5A2.5,2.5,0,0,1,0,24V7a2.5,2.5,0,0,1,2.5-2.5h26A2.5,2.5,0,0,1,31,7V24A2.5,2.5,0,0,1,28.51,26.53Zm-26-21A1.5,1.5,0,0,0,1,7V24a1.5,1.5,0,0,0,1.5,1.5h26A1.5,1.5,0,0,0,30,24V7a1.5,1.5,0,0,0-1.5-1.5H2.5Z" transform="translate(0 -4.48)"/><path d="M15.51,18a2.8,2.8,0,0,1-1.84-.66L0.83,6.16A0.5,0.5,0,1,1,1.49,5.4L14.33,16.6a1.87,1.87,0,0,0,2.36,0L29.51,5.42a0.5,0.5,0,1,1,.66.75L17.34,17.35A2.79,2.79,0,0,1,15.51,18Z" transform="translate(0 -4.48)"/></svg>