<?xml version="1.0" encoding="utf-8"?>
<!-- Generator: Adobe Illustrator 19.2.0, SVG Export Plug-In . SVG Version: 6.00 Build 0)  -->
<svg version="1.1" id="Capa_1" xmlns="http://www.w3.org/2000/svg" xmlns:xlink="http://www.w3.org/1999/xlink" x="0px" y="0px"
	 viewBox="0 0 482 466.5" style="enable-background:new 0 0 482 466.5;" xml:space="preserve">
<style type="text/css">
	.st0{fill:#565656;}
</style>
<title>coordinate-route</title>
<path class="st0" d="M476.6,166.5c-3.4-2.5-7.7-3.2-11.7-1.9l-93.8,30l-58.9-29.4c-2.9,8.1-6.3,16.2-10,24.4l54.6,27.3v215.3
	L254.6,381V267c-8.8,10.7-17.7,19.8-26.3,26.3v87.5l-103.2,49.6V234c-5.6-8.7-10.9-17.9-15.8-27.4c-3.5-6.6-6.8-13.3-9.8-20.1
	l-81-36.7c-6.6-3-14.4,0-17.4,6.6c-0.8,1.7-1.2,3.5-1.2,5.4v244.7c0,5.2,3,9.9,7.7,12l98.9,44.9c3.5,1.6,7.6,1.6,11.1-0.1
	l123.7-59.4l122.7,61.4c1.8,0.9,3.8,1.4,5.9,1.4c1.4,0,2.7-0.2,4-0.6l98.9-31.7c5.4-1.7,9.1-6.8,9.1-12.5V177.1
	C482,172.9,480,169,476.6,166.5z M26.2,182.2l72.7,32.9V431L26.2,398V182.2z M455.8,412.2l-72.6,23.2V218.2l72.6-23.2V412.2
	L455.8,412.2z"/>
<path class="st0" d="M201.8,280.6c19.9,0,98-103,98-173.1c0-49-23-107.4-98-107.4s-98,58.5-98,107.4
	C103.7,178.3,183,280.6,201.8,280.6z M158.3,96.6c0-24,19.5-43.5,43.5-43.5s43.5,19.5,43.5,43.5s-19.5,43.5-43.5,43.5l0,0
	C177.8,140.1,158.3,120.6,158.3,96.6z"/>
</svg>
