<svg id="Capa_1" data-name="Capa 1" xmlns="http://www.w3.org/2000/svg" viewBox="0 0 482.03 466.53"><title>coordinate-route</title><path d="M476.64,174.22a13.22,13.22,0,0,0-11.74-1.9l-93.8,30-58.89-29.44c-2.91,8.08-6.26,16.22-10,24.38l54.61,27.31V439.91L254.65,388.8v-114c-8.83,10.67-17.71,19.79-26.26,26.32v87.5L125.16,438.22V241.75c-5.58-8.73-10.86-17.94-15.8-27.35-3.47-6.63-6.8-13.32-9.83-20.09l-81-36.74A13.13,13.13,0,0,0,0,169.54V414.25a13.15,13.15,0,0,0,7.71,12l98.9,44.86a13.08,13.08,0,0,0,11.1-.13l123.69-59.41,122.71,61.35a13.13,13.13,0,0,0,5.88,1.39,13.29,13.29,0,0,0,4-.62L472.9,442A13.13,13.13,0,0,0,482,429.54V184.83A13.14,13.14,0,0,0,476.64,174.22ZM26.25,189.91L98.9,222.86V438.73L26.25,405.79V189.91ZM455.77,420l-72.65,23.23V226l72.65-23.21V420h0Z" transform="translate(0 -7.75)"/><path d="M201.77,288.32c19.93,0,98-103,98-173.15,0-49-23-107.43-98-107.43s-98,58.47-98,107.43C103.73,186.09,183,288.32,201.77,288.32ZM158.28,104.38a43.49,43.49,0,1,1,43.49,43.49A43.54,43.54,0,0,1,158.28,104.38Z" transform="translate(0 -7.75)"/></svg>