<svg id="Capa_1" data-name="Capa 1" xmlns="http://www.w3.org/2000/svg" viewBox="0 0 50.08 93.17"><title>mobile</title><path d="M64.9,0H28.26a6.72,6.72,0,0,0-6.72,6.72V86.45a6.72,6.72,0,0,0,6.72,6.72H64.9a6.72,6.72,0,0,0,6.72-6.72V6.72A6.72,6.72,0,0,0,64.9,0ZM42.09,4h9a0.59,0.59,0,0,1,0,1.17h-9A0.59,0.59,0,0,1,42.09,4Zm-9-1.41a0.94,0.94,0,1,1-.94.94A0.94,0.94,0,0,1,33.13,2.56ZM28.88,2a1.5,1.5,0,1,1-1.5,1.5A1.5,1.5,0,0,1,28.88,2ZM48.93,89.76H44.24a2.69,2.69,0,1,1,0-5.38h4.69A2.69,2.69,0,1,1,48.93,89.76Zm19.85-7.51H24.39V10.92H68.78V82.25Z" transform="translate(-21.55)"/></svg>