<svg id="Capa_1" data-name="Capa 1" xmlns="http://www.w3.org/2000/svg" viewBox="0 0 386.87 420"><title>rec</title><path d="M252.88,92.82h53.79v62.76l27.27-42.34V77.74a8.2,8.2,0,0,0-2.4-5.79L262,2.39A8.18,8.18,0,0,0,256.2,0H41.11A24.57,24.57,0,0,0,16.57,24.54V395.46A24.57,24.57,0,0,0,41.11,420H309.4a24.57,24.57,0,0,0,24.55-24.54V290.15l-27.26,41.72v60.85H43.84V27.27H242.75V82.69A10.13,10.13,0,0,0,252.88,92.82Z" transform="translate(-16.57)"/><path d="M364.4,195.12l-11.27-7.36a4,4,0,0,0-5.51,1.15l-60.69,92.87-11.67-7.62L336,181.29a4,4,0,0,0-1.15-5.51l-11.27-7.37a4,4,0,0,0-5.51,1.15L227.15,308.62a4,4,0,0,0-.64,2l-2.37,48.26a4,4,0,0,0,5.75,3.75l43.24-21.55a4,4,0,0,0,1.56-1.39l90.87-139.05A4,4,0,0,0,364.4,195.12Z" transform="translate(-16.57)"/><path d="M401.63,138.15l-40.87-26.71a4,4,0,0,0-5.51,1.15l-27.56,42.18a4,4,0,0,0,1.15,5.51L369.72,187a4,4,0,0,0,5.51-1.15l27.56-42.18A4,4,0,0,0,401.63,138.15Z" transform="translate(-16.57)"/><path d="M83.56,87.46h78a10,10,0,0,0,0-20h-78A10,10,0,0,0,83.56,87.46Z" transform="translate(-16.57)"/><path d="M231.56,127.46a10,10,0,0,0-10-10h-138a10,10,0,0,0,0,20h138A10,10,0,0,0,231.56,127.46Z" transform="translate(-16.57)"/><path d="M83.56,187.46h78a10,10,0,1,0,0-20h-78A10,10,0,0,0,83.56,187.46Z" transform="translate(-16.57)"/><path d="M83.56,237.46h78a10,10,0,1,0,0-20h-78A10,10,0,0,0,83.56,237.46Z" transform="translate(-16.57)"/><path d="M87.8,366.69c-1.95,2.52,1.57,6.08,3.54,3.53A137.13,137.13,0,0,0,107,344.43c2.67,1.68,6.18,1.34,9.07.2,4.15-1.64,7.67-4.8,11-7.65,2-1.69,4.29-4.48,7-4.75,2.09-.2,4.92,1.48,7,1.84,5.47,0.93,11.86-.65,17.14-2,5-1.24,10.88-3.19,13.83-7.73,1.76-2.71-2.57-5.22-4.32-2.52-2.36,3.63-8.13,4.76-12,5.73-4.57,1.13-9.88,2.25-14.59,1.44-3.55-.6-6.43-2.75-10.08-1.12-4.89,2.18-8.63,6.76-12.95,9.85a13.53,13.53,0,0,1-6.56,2.9,3.22,3.22,0,0,1-2.48-.9c0.53-1.23,1.06-2.47,1.56-3.73,4.88-12.1,7.08-24.4,9.34-37.15,1.15-6.48,3.06-16.69-6.22-17.31-8.21-.55-15.3,11.29-17.92,17.52-2.35,5.58-2.61,12.06-2.43,18,0.11,3.71,1.45,7.57,2.43,11.4-7.87,1.26-14.81,9.22-13.6,17.1s10.9,3.75,14.52.88a12.63,12.63,0,0,0,4.89-10.45,43.17,43.17,0,0,1,2,4A130.07,130.07,0,0,1,87.8,366.69Zm8.76-28.3c-0.74,3.3-4.91,6.55-8.2,6.86-2.58.24-1-4.38-.5-5.41,1.6-3.24,5.58-5.36,8.92-6.27A15.27,15.27,0,0,1,96.56,338.39Zm4.18-9.68c-0.85-4-2-8-2.34-11.58a35.56,35.56,0,0,1,4.11-20.38c2.16-3.81,6.57-9.65,11.24-10.15,4.17-.44,1.63,9.7,1.27,11.74-1.12,6.29-1.91,12.54-3.47,18.76a140.45,140.45,0,0,1-5.47,17.1C104.9,331.29,103.39,329.44,100.74,328.71Z" transform="translate(-16.57)"/></svg>