<svg id="Layer_1" data-name="Layer 1" xmlns="http://www.w3.org/2000/svg" viewBox="0 0 463 367"><title>tel</title><path d="M423.5,80H174.28A39.56,39.56,0,0,0,135.5,48h-64A39.56,39.56,0,0,0,32.61,80.61,39.56,39.56,0,0,0,0,119.5v256A39.55,39.55,0,0,0,39.5,415h384A39.55,39.55,0,0,0,463,375.5v-256A39.55,39.55,0,0,0,423.5,80ZM71.5,63h64A24.53,24.53,0,0,1,160,87.47s0,0,0,0,0,0,0,0v256A24.53,24.53,0,0,1,135.5,368h-64A24.53,24.53,0,0,1,47,343.5V87.5A24.53,24.53,0,0,1,71.5,63Zm352,337H39.5A24.53,24.53,0,0,1,15,375.5v-256A24.54,24.54,0,0,1,32,96.18V343.5A39.55,39.55,0,0,0,71.5,383h64A39.55,39.55,0,0,0,175,343.5V95H423.5A24.53,24.53,0,0,1,448,119.5v256A24.53,24.53,0,0,1,423.5,400Z" transform="translate(0 -48)"/><path d="M391.5,120h-160A23.53,23.53,0,0,0,208,143.5v32A23.53,23.53,0,0,0,231.5,199h160A23.53,23.53,0,0,0,415,175.5v-32A23.53,23.53,0,0,0,391.5,120Zm8.5,55.5a8.51,8.51,0,0,1-8.5,8.5h-160a8.51,8.51,0,0,1-8.5-8.5v-32a8.51,8.51,0,0,1,8.5-8.5h160a8.51,8.51,0,0,1,8.5,8.5v32Z" transform="translate(0 -48)"/><path d="M255.5,216A23.5,23.5,0,1,0,279,239.5,23.53,23.53,0,0,0,255.5,216Zm0,32a8.5,8.5,0,1,1,8.5-8.5A8.51,8.51,0,0,1,255.5,248Z" transform="translate(0 -48)"/><path d="M311.5,216A23.5,23.5,0,1,0,335,239.5,23.53,23.53,0,0,0,311.5,216Zm0,32a8.5,8.5,0,1,1,8.5-8.5A8.51,8.51,0,0,1,311.5,248Z" transform="translate(0 -48)"/><path d="M367.5,216A23.5,23.5,0,1,0,391,239.5,23.53,23.53,0,0,0,367.5,216Zm0,32a8.5,8.5,0,1,1,8.5-8.5A8.51,8.51,0,0,1,367.5,248Z" transform="translate(0 -48)"/><path d="M255.5,272A23.5,23.5,0,1,0,279,295.5,23.53,23.53,0,0,0,255.5,272Zm0,32a8.5,8.5,0,1,1,8.5-8.5A8.51,8.51,0,0,1,255.5,304Z" transform="translate(0 -48)"/><path d="M311.5,272A23.5,23.5,0,1,0,335,295.5,23.53,23.53,0,0,0,311.5,272Zm0,32a8.5,8.5,0,1,1,8.5-8.5A8.51,8.51,0,0,1,311.5,304Z" transform="translate(0 -48)"/><path d="M367.5,272A23.5,23.5,0,1,0,391,295.5,23.53,23.53,0,0,0,367.5,272Zm0,32a8.5,8.5,0,1,1,8.5-8.5A8.51,8.51,0,0,1,367.5,304Z" transform="translate(0 -48)"/><path d="M255.5,328A23.5,23.5,0,1,0,279,351.5,23.53,23.53,0,0,0,255.5,328Zm0,32a8.5,8.5,0,1,1,8.5-8.5A8.51,8.51,0,0,1,255.5,360Z" transform="translate(0 -48)"/><path d="M311.5,328A23.5,23.5,0,1,0,335,351.5,23.53,23.53,0,0,0,311.5,328Zm0,32a8.5,8.5,0,1,1,8.5-8.5A8.51,8.51,0,0,1,311.5,360Z" transform="translate(0 -48)"/><path d="M367.5,328A23.5,23.5,0,1,0,391,351.5,23.53,23.53,0,0,0,367.5,328Zm0,32a8.5,8.5,0,1,1,8.5-8.5A8.51,8.51,0,0,1,367.5,360Z" transform="translate(0 -48)"/></svg>